<svg width="962" height="399" viewBox="0 0 962 399" fill="none" xmlns="http://www.w3.org/2000/svg">
<path d="M85.3778 116.891C122.108 53.9255 198.183 24.0802 278.862 10.485C362.837 -3.66575 447.926 31.0947 531.742 46.1626C574.309 53.815 626.166 56.7103 685.887 49.2943C831.535 31.2081 880.653 142.453 900.986 164.056C901.066 164.14 901.129 164.221 901.193 164.317L914.114 183.757C945.695 231.271 954.124 290.507 937.05 344.943L929.514 368.968C929.252 369.804 928.976 370.373 928.101 370.371C897.328 370.301 146.702 368.605 85.3778 368.605C22.7693 368.605 -34.5823 349.826 25.2007 258.877C58.0246 208.942 34.868 203.478 85.3778 116.891Z" fill="#F9F9F9"/>
<g clip-path="url(#clip0_848_3251)">
<path d="M177.846 318.362L180.501 321.169" stroke="#2957A4" stroke-width="3.5" stroke-linejoin="round"/>
<path d="M234.543 315.933L278.699 357.513C280.018 358.754 279.139 360.969 277.328 360.969H225.434C224.905 360.969 224.398 360.759 224.023 360.386L182.272 318.807C181.009 317.548 181.9 315.389 183.684 315.389H233.172C233.682 315.389 234.172 315.584 234.543 315.933Z" fill="#DEE8F7"/>
<path d="M274.827 357.558L259.772 342.428C258.987 341.64 257.711 341.643 256.931 342.434L241.994 357.564C240.747 358.827 241.642 360.969 243.418 360.969H273.41C275.189 360.969 276.083 358.819 274.827 357.558Z" fill="#ADC4EB"/>
<path d="M222.141 355.687L246.136 331.336C246.79 330.673 246.803 329.611 246.164 328.932C245.495 328.22 244.37 328.202 243.678 328.892L219.467 353.03C218.729 353.766 218.729 354.962 219.467 355.699C220.208 356.437 221.407 356.432 222.141 355.687Z" fill="#ADC4EB"/>
<path d="M214.486 347.775L238.448 323.885C239.242 323.093 239.23 321.804 238.422 321.027L236.059 318.755C235.686 318.397 235.19 318.197 234.673 318.197H216.747C216.218 318.197 215.71 318.407 215.335 318.78L200.315 333.756C199.528 334.54 199.531 335.816 200.323 336.596L211.669 347.783C212.451 348.554 213.708 348.55 214.486 347.775Z" fill="#ADC4EB"/>
<path d="M194.681 330.226L206.045 318.46C206.208 318.292 206.431 318.197 206.665 318.197C207.42 318.197 207.809 319.101 207.29 319.65L196.044 331.529C195.694 331.899 195.114 331.924 194.733 331.587C194.332 331.231 194.308 330.612 194.681 330.226Z" fill="#ADC4EB"/>
<path d="M193.402 326.846L198.3 321.556C199.486 320.275 198.577 318.197 196.832 318.197H186.954C185.202 318.197 184.297 320.291 185.498 321.568L190.478 326.858C191.272 327.702 192.615 327.696 193.402 326.846Z" fill="#ADC4EB"/>
<path d="M234.254 315.661L280.534 359.241C281.193 359.861 280.754 360.969 279.849 360.969H225.021C224.757 360.969 224.503 360.864 224.316 360.677L180.557 317.098C179.925 316.469 180.371 315.389 181.263 315.389H233.569C233.823 315.389 234.069 315.487 234.254 315.661Z" stroke="#2957A4" stroke-width="2" stroke-linejoin="bevel"/>
<path d="M238.073 319.737L183.924 319.737" stroke="#2957A4" stroke-width="2" stroke-linejoin="bevel"/>
<path d="M245.916 326.799L190.269 327.215" stroke="#2957A4" stroke-width="2"/>
<path d="M254.878 334.977L198.253 335.041" stroke="#2957A4" stroke-width="2" stroke-linejoin="bevel"/>
<path d="M250.77 330.888L194.603 330.913" stroke="#2957A4" stroke-width="2" stroke-linejoin="bevel"/>
<path d="M264.119 346.932H214.18" stroke="#2957A4" stroke-width="2" stroke-linejoin="bevel"/>
<path d="M219.943 317.701L261.631 358.987M199.414 317.701L241.338 358.987" stroke="#2957A4" stroke-width="2" stroke-linejoin="bevel"/>
<path d="M262.347 342.783L206.714 342.803" stroke="#2957A4" stroke-width="2" stroke-linejoin="bevel"/>
<path d="M270.563 349.845L214.18 350.4" stroke="#2957A4" stroke-width="2" stroke-linejoin="bevel"/>
<path d="M277.049 355.56H219.146" stroke="#2957A4" stroke-width="2" stroke-linejoin="bevel"/>
<path d="M279.326 366.693L281.476 362.409C281.81 361.744 281.327 360.961 280.583 360.961H225.053C224.79 360.961 224.537 360.857 224.35 360.672L180.029 316.827C179.508 316.312 178.628 316.514 178.383 317.204L177.226 320.469C177.098 320.831 177.188 321.234 177.458 321.507L222.456 366.948C222.644 367.137 222.9 367.244 223.167 367.244H278.433C278.811 367.244 279.157 367.031 279.326 366.693Z" fill="white"/>
<path d="M281.476 362.409L280.583 361.961L280.583 361.961L281.476 362.409ZM279.326 366.693L280.22 367.141L280.22 367.141L279.326 366.693ZM222.456 366.948L221.746 367.651L221.746 367.651L222.456 366.948ZM177.458 321.507L176.747 322.21L176.747 322.21L177.458 321.507ZM177.226 320.469L178.169 320.803V320.803L177.226 320.469ZM178.383 317.204L177.44 316.87V316.87L178.383 317.204ZM180.029 316.827L180.732 316.117L180.732 316.117L180.029 316.827ZM224.35 360.672L223.647 361.383L223.647 361.383L224.35 360.672ZM282.37 362.858L280.22 367.141L278.433 366.244L280.583 361.961L282.37 362.858ZM278.433 368.244H223.167V366.244H278.433V368.244ZM221.746 367.651L176.747 322.21L178.169 320.803L223.167 366.244L221.746 367.651ZM176.283 320.135L177.44 316.87L179.325 317.538L178.169 320.803L176.283 320.135ZM180.732 316.117L225.053 359.961L223.647 361.383L179.325 317.538L180.732 316.117ZM225.053 359.961H280.583V361.961H225.053V359.961ZM225.053 359.961L225.053 359.961V361.961C224.527 361.961 224.021 361.753 223.647 361.383L225.053 359.961ZM177.44 316.87C177.93 315.489 179.69 315.086 180.732 316.117L179.325 317.538L179.325 317.538L177.44 316.87ZM176.747 322.21C176.207 321.665 176.027 320.859 176.283 320.135L178.169 320.803V320.803L176.747 322.21ZM223.167 368.244C222.633 368.244 222.122 368.031 221.746 367.651L223.167 366.244L223.167 366.244V368.244ZM280.22 367.141C279.881 367.817 279.189 368.244 278.433 368.244V366.244L278.433 366.244L280.22 367.141ZM280.583 361.961L280.583 361.961V359.961C282.071 359.961 283.038 361.528 282.37 362.858L280.583 361.961Z" fill="#2957A4"/>
<path d="M263.013 347.025L270.615 350.247L262.849 342.956L263.013 347.025Z" fill="white" stroke="#2957A4" stroke-width="1.5" stroke-linejoin="bevel"/>
<path d="M198.253 330.804L190.787 327.28L198.253 334.876L198.253 330.804Z" fill="white" stroke="#2957A4" stroke-width="1.5" stroke-linejoin="bevel"/>
<path d="M246.004 330.989L254.235 334.785L245.898 326.905L246.004 330.989Z" fill="white" stroke="#2957A4" stroke-width="1.5" stroke-linejoin="bevel"/>
<path d="M214.18 346.81L206.217 342.803L214.18 350.895L214.18 346.81Z" fill="white" stroke="#2957A4" stroke-width="1.5" stroke-linejoin="bevel"/>
<path d="M261.71 358.689L257.155 360.9L267.86 361.011L261.71 358.689Z" fill="white" stroke="#2957A4" stroke-width="1.5" stroke-linejoin="bevel"/>
<path d="M199.277 317.7L203.832 315.488L193.127 315.377L199.277 317.7Z" fill="white" stroke="#2957A4" stroke-width="1.5" stroke-linejoin="bevel"/>
<path d="M241.051 358.689L236.496 360.9L247.201 361.011L241.051 358.689Z" fill="white" stroke="#2957A4" stroke-width="1.5" stroke-linejoin="bevel"/>
<path d="M219.936 317.7L224.491 315.488L213.786 315.377L219.936 317.7Z" fill="white" stroke="#2957A4" stroke-width="1.5" stroke-linejoin="bevel"/>
<path d="M251.465 346.501L247.959 344.771C247.434 344.512 246.8 344.758 246.586 345.303L246.374 345.843C246.183 346.33 246.399 346.882 246.871 347.109L250.757 348.982C251.519 349.349 252.365 348.662 252.162 347.841L251.993 347.158C251.922 346.872 251.729 346.632 251.465 346.501Z" fill="white" stroke="#2957A4" stroke-width="1.5" stroke-linejoin="bevel"/>
<path d="M234.874 329.822L231.368 328.092C230.843 327.833 230.208 328.078 229.995 328.623L229.783 329.164C229.592 329.651 229.808 330.203 230.279 330.43L234.166 332.302C234.928 332.67 235.773 331.983 235.571 331.162L235.402 330.479C235.331 330.193 235.138 329.952 234.874 329.822Z" fill="white" stroke="#2957A4" stroke-width="1.5" stroke-linejoin="bevel"/>
<path d="M231.058 346.501L227.552 344.771C227.027 344.512 226.392 344.758 226.179 345.303L225.967 345.843C225.776 346.33 225.992 346.882 226.464 347.109L230.35 348.982C231.112 349.349 231.958 348.662 231.755 347.841L231.586 347.158C231.515 346.872 231.322 346.632 231.058 346.501Z" fill="white" stroke="#2957A4" stroke-width="1.5" stroke-linejoin="bevel"/>
<path d="M214.301 329.822L210.795 328.092C210.27 327.833 209.635 328.078 209.422 328.623L209.21 329.164C209.019 329.651 209.235 330.203 209.706 330.43L213.593 332.302C214.355 332.67 215.2 331.983 214.998 331.162L214.829 330.479C214.758 330.193 214.565 329.952 214.301 329.822Z" fill="white" stroke="#2957A4" stroke-width="1.5" stroke-linejoin="bevel"/>
<path d="M200.178 366.007L202.257 361.554L206.586 352.283C206.763 351.904 206.685 351.455 206.391 351.157L202.998 347.723L200.159 344.849C199.661 344.345 198.81 344.505 198.53 345.156L192.816 358.411L189.895 365.188C189.611 365.848 190.095 366.584 190.814 366.584H194.601H199.272C199.661 366.584 200.014 366.359 200.178 366.007Z" fill="#D0D0D0"/>
<path d="M202.257 361.554L200.178 366.007C200.014 366.359 199.661 366.584 199.272 366.584H194.601M202.257 361.554L206.586 352.283C206.763 351.904 206.685 351.455 206.391 351.157L202.998 347.723M202.257 361.554H197.387C197.173 361.554 196.964 361.485 196.792 361.357L192.816 358.411M192.816 358.411L198.53 345.156C198.81 344.505 199.661 344.345 200.159 344.849L202.998 347.723M192.816 358.411L189.895 365.188C189.611 365.848 190.095 366.584 190.814 366.584H194.601M202.998 347.723L194.601 366.584" stroke="#2957A4" stroke-width="2" stroke-linejoin="bevel"/>
<path d="M226.892 366.09L227.785 364.176C228.403 362.85 227.435 361.33 225.972 361.33H225.606C225.076 361.33 224.567 361.119 224.192 360.744L224.046 360.598C223.041 359.593 221.338 359.927 220.787 361.237L220.175 362.694C219.861 363.443 220.03 364.308 220.605 364.882L222.379 366.658C222.754 367.033 223.263 367.244 223.794 367.244H225.08C225.857 367.244 226.564 366.794 226.892 366.09Z" fill="white" stroke="#2957A4" stroke-width="2" stroke-linejoin="bevel"/>
<path d="M142.964 311.501L141.905 306.706L139.7 296.718C139.61 296.311 139.276 296.003 138.863 295.944L134.071 295.26L130.067 294.688C129.362 294.587 128.78 295.23 128.954 295.918L132.483 309.903L134.289 317.059C134.464 317.755 135.296 318.045 135.869 317.611L138.88 315.326L142.593 312.508C142.903 312.273 143.048 311.88 142.964 311.501Z" fill="#D0D0D0"/>
<path d="M141.905 306.706L142.964 311.501C143.048 311.88 142.903 312.273 142.593 312.508L138.88 315.326M141.905 306.706L139.7 296.718C139.61 296.311 139.276 296.003 138.863 295.944L134.071 295.26M141.905 306.706L138.034 309.644C137.862 309.774 137.654 309.845 137.438 309.848L132.483 309.903M132.483 309.903L128.954 295.918C128.78 295.23 129.362 294.587 130.067 294.688L134.071 295.26M132.483 309.903L134.289 317.059C134.464 317.755 135.296 318.045 135.869 317.611L138.88 315.326M134.071 295.26L138.88 315.326" stroke="#2957A4" stroke-width="2" stroke-linejoin="bevel"/>
<path d="M95.8862 258.25L98.5408 261.058" stroke="#2957A4" stroke-width="3.5" stroke-linejoin="round"/>
<path d="M155.228 255.86L196.978 297.44C198.242 298.698 197.351 300.857 195.567 300.857H143.474C142.945 300.857 142.438 300.647 142.063 300.274L100.312 258.695C99.0486 257.436 99.94 255.277 101.724 255.277H153.816C154.345 255.277 154.853 255.487 155.228 255.86Z" fill="#DEE8F7"/>
<path d="M192.867 297.446L177.812 282.316C177.028 281.529 175.752 281.531 174.971 282.322L160.034 297.452C158.787 298.715 159.682 300.857 161.458 300.857H191.45C193.229 300.857 194.123 298.707 192.867 297.446Z" fill="#ADC4EB"/>
<path d="M140.181 295.575L164.176 271.224C164.83 270.561 164.843 269.499 164.204 268.82C163.535 268.108 162.41 268.09 161.718 268.78L137.507 292.918C136.769 293.654 136.769 294.851 137.507 295.587C138.248 296.325 139.447 296.32 140.181 295.575Z" fill="#ADC4EB"/>
<path d="M132.526 287.663L156.488 263.773C157.282 262.981 157.27 261.692 156.462 260.915L154.099 258.643C153.726 258.285 153.23 258.085 152.713 258.085H134.787C134.258 258.085 133.75 258.295 133.375 258.669L118.355 273.644C117.568 274.428 117.571 275.704 118.363 276.484L129.709 287.671C130.491 288.442 131.748 288.438 132.526 287.663Z" fill="#ADC4EB"/>
<path d="M112.721 270.114L124.085 258.348C124.248 258.18 124.471 258.085 124.705 258.085C125.46 258.085 125.849 258.989 125.33 259.538L114.084 271.418C113.734 271.787 113.154 271.812 112.773 271.475C112.372 271.119 112.348 270.5 112.721 270.114Z" fill="#ADC4EB"/>
<path d="M111.442 266.734L116.34 261.444C117.526 260.163 116.617 258.085 114.873 258.085H104.994C103.242 258.085 102.337 260.179 103.538 261.456L108.518 266.746C109.312 267.59 110.655 267.584 111.442 266.734Z" fill="#ADC4EB"/>
<path d="M154.935 255.569L198.694 299.148C199.326 299.778 198.88 300.857 197.988 300.857H143.061C142.797 300.857 142.543 300.752 142.356 300.565L98.5969 256.986C97.9649 256.357 98.4107 255.277 99.3026 255.277H154.229C154.494 255.277 154.748 255.382 154.935 255.569Z" stroke="#2957A4" stroke-width="2" stroke-linejoin="bevel"/>
<path d="M158.6 259.571H101.859" stroke="#2957A4" stroke-width="2" stroke-linejoin="bevel"/>
<path d="M166.187 266.946L108.309 267.103" stroke="#2957A4" stroke-width="2"/>
<path d="M174.196 274.929H116.293" stroke="#2957A4" stroke-width="2" stroke-linejoin="bevel"/>
<path d="M170.38 270.801H112.643" stroke="#2957A4" stroke-width="2" stroke-linejoin="bevel"/>
<path d="M182.159 286.82H132.22" stroke="#2957A4" stroke-width="2" stroke-linejoin="bevel"/>
<path d="M137.983 257.59L179.671 298.875M117.454 257.59L159.378 298.875" stroke="#2957A4" stroke-width="2" stroke-linejoin="bevel"/>
<path d="M181.662 282.691L124.754 282.691" stroke="#2957A4" stroke-width="2" stroke-linejoin="bevel"/>
<path d="M190.123 290.288H132.22" stroke="#2957A4" stroke-width="2" stroke-linejoin="bevel"/>
<path d="M196.394 295.829H138.491" stroke="#2957A4" stroke-width="1.5" stroke-linejoin="bevel"/>
<path d="M197.366 306.581L199.517 302.297C199.85 301.632 199.367 300.849 198.623 300.849H143.093C142.83 300.849 142.577 300.745 142.39 300.56L98.0687 256.716C97.5477 256.2 96.6676 256.402 96.4228 257.092L95.2661 260.357C95.1379 260.719 95.2281 261.122 95.4981 261.395L140.497 306.836C140.684 307.026 140.94 307.132 141.207 307.132H196.473C196.851 307.132 197.197 306.919 197.366 306.581Z" fill="white"/>
<path d="M199.517 302.297L198.623 301.849L198.623 301.849L199.517 302.297ZM197.366 306.581L198.26 307.029L198.26 307.029L197.366 306.581ZM140.497 306.836L139.786 307.54L139.786 307.54L140.497 306.836ZM95.4981 261.395L94.7875 262.098L94.7875 262.098L95.4981 261.395ZM95.2661 260.357L96.2086 260.691V260.691L95.2661 260.357ZM96.4228 257.092L95.4802 256.758V256.758L96.4228 257.092ZM98.0687 256.716L98.7719 256.005L98.7719 256.005L98.0687 256.716ZM142.39 300.56L141.687 301.271L141.687 301.271L142.39 300.56ZM200.41 302.746L198.26 307.029L196.473 306.132L198.623 301.849L200.41 302.746ZM196.473 308.132H141.207V306.132H196.473V308.132ZM139.786 307.54L94.7875 262.098L96.2086 260.691L141.207 306.132L139.786 307.54ZM94.3235 260.023L95.4802 256.758L97.3654 257.426L96.2086 260.691L94.3235 260.023ZM98.7719 256.005L143.093 299.849L141.687 301.271L97.3654 257.426L98.7719 256.005ZM143.093 299.849H198.623V301.849H143.093V299.849ZM143.093 299.849L143.093 299.849V301.849C142.567 301.849 142.061 301.641 141.687 301.271L143.093 299.849ZM95.4802 256.758C95.9697 255.377 97.7299 254.974 98.7719 256.005L97.3654 257.426L97.3654 257.426L95.4802 256.758ZM94.7875 262.098C94.2475 261.553 94.0671 260.747 94.3235 260.023L96.2086 260.691V260.691L94.7875 262.098ZM141.207 308.132C140.673 308.132 140.162 307.919 139.786 307.54L141.207 306.132L141.207 306.132V308.132ZM198.26 307.029C197.921 307.705 197.229 308.132 196.473 308.132V306.132L196.473 306.132L198.26 307.029ZM198.623 301.849L198.623 301.849V299.849C200.111 299.849 201.078 301.416 200.41 302.746L198.623 301.849Z" fill="#2957A4"/>
<path d="M182.159 286.764L189.625 290.288L182.159 282.691V286.764Z" fill="white" stroke="#2957A4" stroke-width="1.5" stroke-linejoin="bevel"/>
<path d="M116.293 270.692L108.827 267.168L116.293 274.764L116.293 270.692Z" fill="white" stroke="#2957A4" stroke-width="1.5" stroke-linejoin="bevel"/>
<path d="M165.734 270.592L173.864 274.599L165.734 266.507V270.592Z" fill="white" stroke="#2957A4" stroke-width="1.5" stroke-linejoin="bevel"/>
<path d="M132.22 286.698L124.257 282.691L132.22 290.783L132.22 286.698Z" fill="white" stroke="#2957A4" stroke-width="1.5" stroke-linejoin="bevel"/>
<path d="M179.75 298.577L175.195 300.788L185.9 300.899L179.75 298.577Z" fill="white" stroke="#2957A4" stroke-width="1.5" stroke-linejoin="bevel"/>
<path d="M117.317 257.588L121.872 255.376L111.167 255.265L117.317 257.588Z" fill="white" stroke="#2957A4" stroke-width="1.5" stroke-linejoin="bevel"/>
<path d="M159.091 298.577L154.536 300.788L165.241 300.899L159.091 298.577Z" fill="white" stroke="#2957A4" stroke-width="1.5" stroke-linejoin="bevel"/>
<path d="M137.976 257.588L142.531 255.376L131.826 255.265L137.976 257.588Z" fill="white" stroke="#2957A4" stroke-width="1.5" stroke-linejoin="bevel"/>
<path d="M169.505 286.389L165.999 284.659C165.474 284.4 164.84 284.646 164.626 285.191L164.414 285.732C164.223 286.219 164.44 286.77 164.911 286.998L168.797 288.87C169.559 289.237 170.405 288.551 170.202 287.729L170.033 287.046C169.962 286.76 169.769 286.52 169.505 286.389Z" fill="white" stroke="#2957A4" stroke-width="1.5" stroke-linejoin="bevel"/>
<path d="M152.914 269.71L149.408 267.98C148.883 267.721 148.248 267.966 148.035 268.511L147.823 269.052C147.632 269.539 147.848 270.091 148.319 270.318L152.206 272.19C152.968 272.558 153.814 271.871 153.611 271.05L153.442 270.367C153.371 270.081 153.178 269.84 152.914 269.71Z" fill="white" stroke="#2957A4" stroke-width="1.5" stroke-linejoin="bevel"/>
<path d="M149.098 286.389L145.592 284.659C145.067 284.4 144.432 284.646 144.219 285.191L144.007 285.732C143.816 286.219 144.032 286.77 144.504 286.998L148.39 288.87C149.152 289.237 149.998 288.551 149.795 287.729L149.626 287.046C149.555 286.76 149.362 286.52 149.098 286.389Z" fill="white" stroke="#2957A4" stroke-width="1.5" stroke-linejoin="bevel"/>
<path d="M132.341 269.71L128.835 267.98C128.31 267.721 127.675 267.966 127.462 268.511L127.25 269.052C127.059 269.539 127.275 270.091 127.746 270.318L131.633 272.19C132.395 272.558 133.241 271.871 133.038 271.05L132.869 270.367C132.798 270.081 132.605 269.84 132.341 269.71Z" fill="white" stroke="#2957A4" stroke-width="1.5" stroke-linejoin="bevel"/>
<path d="M144.932 305.978L145.825 304.064C146.443 302.738 145.476 301.218 144.012 301.218H143.646C143.116 301.218 142.607 301.007 142.232 300.632L142.086 300.486C141.081 299.481 139.378 299.815 138.827 301.125L138.215 302.582C137.901 303.331 138.07 304.196 138.645 304.77L140.419 306.546C140.794 306.921 141.303 307.132 141.834 307.132H143.12C143.897 307.132 144.604 306.682 144.932 305.978Z" fill="white" stroke="#2957A4" stroke-width="2" stroke-linejoin="bevel"/>
<path d="M100.615 315.885L103.435 318.692" stroke="#2957A4" stroke-width="5" stroke-linejoin="round"/>
<path d="M163.001 313.33L207.097 357.221C208.361 358.48 207.47 360.638 205.686 360.638H150.633C150.104 360.638 149.597 360.429 149.222 360.056L105.126 316.165C103.862 314.906 104.753 312.747 106.537 312.747H161.591C162.119 312.747 162.627 312.957 163.001 313.33Z" fill="#DEE8F7"/>
<path d="M202.816 357.227L186.734 341.092C185.95 340.306 184.676 340.308 183.895 341.098L167.941 357.232C166.692 358.495 167.587 360.638 169.363 360.638H201.399C203.179 360.638 204.073 358.487 202.816 357.227Z" fill="#ADC4EB"/>
<path d="M147.223 355.094L172.464 329.521C173.153 328.823 173.166 327.705 172.494 326.992C171.79 326.245 170.609 326.226 169.882 326.95L144.415 352.298C143.637 353.073 143.637 354.332 144.415 355.106C145.193 355.881 146.452 355.875 147.223 355.094Z" fill="#ADC4EB"/>
<path d="M139.099 346.856L164.45 321.622C165.246 320.83 165.234 319.539 164.424 318.762L161.835 316.277C161.463 315.919 160.967 315.72 160.45 315.72H141.508C140.979 315.72 140.472 315.929 140.097 316.302L124.196 332.13C123.407 332.915 123.411 334.192 124.204 334.972L136.285 346.864C137.066 347.633 138.321 347.63 139.099 346.856Z" fill="#ADC4EB"/>
<path d="M118.341 328.351L130.295 315.995C130.465 315.819 130.7 315.72 130.945 315.72C131.74 315.72 132.148 316.671 131.602 317.247L119.772 329.723C119.405 330.11 118.796 330.137 118.396 329.783C117.974 329.409 117.948 328.757 118.341 328.351Z" fill="#ADC4EB"/>
<path d="M116.918 324.886L122.302 319.08C123.489 317.8 122.581 315.72 120.836 315.72H109.977C108.224 315.72 107.319 317.816 108.522 319.092L113.996 324.898C114.79 325.74 116.131 325.734 116.918 324.886Z" fill="#ADC4EB"/>
<path d="M162.709 313.038L208.814 358.93C209.446 359.559 209 360.638 208.108 360.638H150.22C149.955 360.638 149.702 360.534 149.514 360.347L103.41 314.456C102.777 313.827 103.223 312.747 104.115 312.747H162.003C162.268 312.747 162.521 312.852 162.709 313.038Z" stroke="#2957A4" stroke-width="2" stroke-linejoin="bevel"/>
<path d="M166.564 317.206H106.836" stroke="#2957A4" stroke-width="2" stroke-linejoin="bevel"/>
<path d="M174.528 324.968L113.639 325.133" stroke="#2957A4" stroke-width="2"/>
<path d="M182.989 333.39H122.1" stroke="#2957A4" stroke-width="2" stroke-linejoin="bevel"/>
<path d="M179.007 329.096H118.118" stroke="#2957A4" stroke-width="2" stroke-linejoin="bevel"/>
<path d="M191.285 345.941H138.857" stroke="#2957A4" stroke-width="2" stroke-linejoin="bevel"/>
<path d="M144.83 315.059L188.796 358.492M123.178 315.059L167.393 358.492" stroke="#2957A4" stroke-width="2" stroke-linejoin="bevel"/>
<path d="M190.787 341.482L130.893 341.482" stroke="#2957A4" stroke-width="2" stroke-linejoin="bevel"/>
<path d="M199.746 349.574H138.857" stroke="#2957A4" stroke-width="2" stroke-linejoin="bevel"/>
<path d="M207.378 357.501H146.489" stroke="#2957A4" stroke-width="2" stroke-linejoin="bevel"/>
<path d="M207.323 366.693L209.636 362.087C209.971 361.422 209.487 360.638 208.743 360.638H150.218C149.955 360.638 149.702 360.535 149.515 360.35L102.812 314.184C102.291 313.669 101.412 313.87 101.167 314.561L99.9119 318.1C99.7836 318.462 99.8738 318.866 100.144 319.138L147.523 366.948C147.71 367.137 147.966 367.244 148.233 367.244H206.429C206.807 367.244 207.153 367.031 207.323 366.693Z" fill="white"/>
<path d="M209.636 362.087L210.53 362.536H210.53L209.636 362.087ZM207.323 366.693L206.429 366.244L206.429 366.244L207.323 366.693ZM147.523 366.948L146.812 367.652L147.523 366.948ZM100.144 319.138L99.4338 319.842V319.842L100.144 319.138ZM99.9119 318.1L98.9694 317.766V317.766L99.9119 318.1ZM101.167 314.561L102.109 314.895V314.895L101.167 314.561ZM102.812 314.184L102.109 314.895V314.895L102.812 314.184ZM149.515 360.35L148.812 361.061L148.812 361.061L149.515 360.35ZM210.53 362.536L208.216 367.142L206.429 366.244L208.743 361.638L210.53 362.536ZM206.429 368.244H148.233V366.244H206.429V368.244ZM146.812 367.652L99.4338 319.842L100.854 318.434L148.233 366.244L146.812 367.652ZM98.9694 317.766L100.224 314.227L102.109 314.895L100.854 318.434L98.9694 317.766ZM103.515 313.473L150.218 359.638L148.812 361.061L102.109 314.895L103.515 313.473ZM150.218 359.638H208.743V361.638H150.218V359.638ZM150.218 359.638L150.218 359.638V361.638C149.691 361.638 149.186 361.431 148.812 361.061L150.218 359.638ZM100.224 314.227C100.714 312.846 102.473 312.443 103.515 313.473L102.109 314.895L102.109 314.895L100.224 314.227ZM99.4338 319.842C98.8932 319.297 98.7127 318.49 98.9694 317.766L100.854 318.434V318.434L99.4338 319.842ZM148.233 368.244C147.699 368.244 147.188 368.031 146.812 367.652L148.233 366.244V366.244V368.244ZM208.216 367.142C207.877 367.818 207.186 368.244 206.429 368.244V366.244L206.429 366.244L208.216 367.142ZM208.743 361.638H208.743V359.638C210.231 359.638 211.198 361.206 210.53 362.536L208.743 361.638Z" fill="#2957A4"/>
<path d="M191.858 346.046L194.093 347.1C195.103 347.576 196.015 346.29 195.232 345.494L192.997 343.223C192.37 342.585 191.285 343.029 191.285 343.924V345.141C191.285 345.529 191.508 345.881 191.858 346.046Z" fill="white" stroke="#2957A4" stroke-width="1.5" stroke-linejoin="bevel"/>
<path d="M121.526 328.578L119.292 327.525C118.282 327.048 117.369 328.334 118.153 329.13L120.387 331.401C121.015 332.039 122.1 331.595 122.1 330.7L122.1 329.483C122.1 329.096 121.877 328.743 121.526 328.578Z" fill="white" stroke="#2957A4" stroke-width="1.5" stroke-linejoin="bevel"/>
<path d="M174.667 329.042L177.134 330.269C178.147 330.774 179.086 329.471 178.288 328.669L175.822 326.19C175.193 325.557 174.113 326.003 174.113 326.895V328.147C174.113 328.526 174.328 328.873 174.667 329.042Z" fill="white" stroke="#2957A4" stroke-width="1.5" stroke-linejoin="bevel"/>
<path d="M138.302 345.417L135.836 344.19C134.823 343.685 133.884 344.988 134.682 345.79L137.148 348.269C137.777 348.902 138.857 348.456 138.857 347.564L138.857 346.312C138.857 345.933 138.642 345.586 138.302 345.417Z" fill="white" stroke="#2957A4" stroke-width="1.5" stroke-linejoin="bevel"/>
<path d="M188.796 358.244L184.004 360.57L195.267 360.687L188.796 358.244Z" fill="white" stroke="#2957A4" stroke-width="1.5" stroke-linejoin="bevel"/>
<path d="M123.115 315.122L127.907 312.796L116.645 312.679L123.115 315.122Z" fill="white" stroke="#2957A4" stroke-width="1.5" stroke-linejoin="bevel"/>
<path d="M167.062 358.244L162.27 360.57L173.532 360.687L167.062 358.244Z" fill="white" stroke="#2957A4" stroke-width="1.5" stroke-linejoin="bevel"/>
<path d="M144.849 315.122L149.641 312.796L138.379 312.679L144.849 315.122Z" fill="white" stroke="#2957A4" stroke-width="1.5" stroke-linejoin="bevel"/>
<path d="M178.094 345.486L174.347 343.621C173.82 343.359 173.183 343.606 172.969 344.154L172.705 344.834C172.516 345.319 172.732 345.868 173.2 346.096L177.424 348.148C178.186 348.518 179.034 347.833 178.832 347.011L178.62 346.144C178.55 345.858 178.358 345.617 178.094 345.486Z" fill="white" stroke="#2957A4" stroke-width="1.5" stroke-linejoin="bevel"/>
<path d="M160.508 327.816L156.76 325.951C156.234 325.689 155.596 325.936 155.383 326.484L155.118 327.164C154.93 327.649 155.145 328.198 155.613 328.426L159.837 330.478C160.599 330.848 161.447 330.163 161.246 329.34L161.033 328.473C160.963 328.188 160.771 327.947 160.508 327.816Z" fill="white" stroke="#2957A4" stroke-width="1.5" stroke-linejoin="bevel"/>
<path d="M156.526 345.486L152.779 343.621C152.252 343.359 151.614 343.606 151.401 344.154L151.137 344.834C150.948 345.319 151.163 345.868 151.632 346.096L155.856 348.148C156.617 348.518 157.466 347.833 157.264 347.011L157.052 346.144C156.982 345.858 156.789 345.617 156.526 345.486Z" fill="white" stroke="#2957A4" stroke-width="1.5" stroke-linejoin="bevel"/>
<path d="M138.939 327.816L135.192 325.951C134.666 325.689 134.028 325.936 133.815 326.484L133.55 327.164C133.361 327.649 133.577 328.198 134.045 328.426L138.269 330.478C139.031 330.848 139.879 330.163 139.678 329.34L139.465 328.473C139.395 328.188 139.203 327.947 138.939 327.816Z" fill="white" stroke="#2957A4" stroke-width="1.5" stroke-linejoin="bevel"/>
<path d="M123.874 366.707L126.074 361.822L130.65 351.659C130.817 351.289 130.743 350.854 130.462 350.559L126.852 346.77L123.835 343.604C123.337 343.081 122.465 343.243 122.188 343.91L116.164 358.401L113.041 365.912C112.767 366.571 113.251 367.296 113.965 367.296H118.037H122.962C123.356 367.296 123.713 367.065 123.874 366.707Z" fill="#D0D0D0"/>
<path d="M126.074 361.822L123.874 366.707C123.713 367.065 123.356 367.296 122.962 367.296H118.037M126.074 361.822L130.65 351.659C130.817 351.289 130.743 350.854 130.462 350.559L126.852 346.77M126.074 361.822H120.955C120.735 361.822 120.52 361.75 120.346 361.615L116.164 358.401M116.164 358.401L122.188 343.91C122.465 343.243 123.337 343.081 123.835 343.604L126.852 346.77M116.164 358.401L113.041 365.912C112.767 366.571 113.251 367.296 113.965 367.296H118.037M126.852 346.77L118.037 367.296" stroke="#2957A4" stroke-width="2" stroke-linejoin="bevel"/>
<path d="M129.737 353.94L130.889 351.645C131.088 351.249 131.003 350.77 130.68 350.467L126.16 346.233C125.374 345.496 124.139 346.352 124.553 347.347L125.584 349.822L127.976 353.989C128.373 354.68 129.379 354.652 129.737 353.94Z" fill="black" fill-opacity="0.3"/>
<path d="M151.819 366.586L153.785 362.393C154.096 361.73 153.612 360.969 152.879 360.969H150.303C150.039 360.969 149.785 360.864 149.597 360.677L147.954 359.042C147.452 358.542 146.603 358.708 146.327 359.361L144.761 363.072C144.602 363.448 144.687 363.882 144.976 364.17L147.69 366.87C147.877 367.057 148.131 367.162 148.395 367.162H150.914C151.301 367.162 151.654 366.937 151.819 366.586Z" stroke="#2957A4" stroke-width="2" stroke-linejoin="bevel"/>
</g>
<g opacity="0.32">
<path d="M816.136 237.42C866.229 252.856 879.412 353.856 880.73 356.943V237.42H816.136Z" fill="white" fill-opacity="0.31"/>
<path d="M878.867 252.053C878.756 251.039 877.899 250.272 876.879 250.272H816.825C815.838 250.272 814.999 250.992 814.848 251.968L814.694 252.969C814.508 254.181 815.445 255.273 816.671 255.273H876.989C878.18 255.273 879.107 254.239 878.977 253.055L878.867 252.053Z" fill="#B22A2D" fill-opacity="0.4"/>
<path d="M879.409 262.049C879.294 261.038 878.439 260.275 877.421 260.275H815.179C814.196 260.275 813.358 260.989 813.204 261.96L813.044 262.962C812.851 264.176 813.789 265.276 815.019 265.276H877.535C878.729 265.276 879.657 264.237 879.523 263.05L879.409 262.049Z" fill="#B22A2D" fill-opacity="0.4"/>
<path d="M871.722 239.269C872.894 238.706 875.238 237.917 875.238 239.269C875.238 240.028 879.212 252.164 880.73 277.775C881.917 297.791 880.73 327.325 880.73 357.605H871.722V239.269Z" fill="white" fill-opacity="0.29"/>
<path d="M846.017 358.707V237.861H816.137L812.621 266.088L793.287 354.297V358.707H846.017Z" fill="#ADC4EB" fill-opacity="0.09"/>
<path d="M846.017 352.974C871.242 354.289 889.903 353.153 898.017 352.992C898.958 352.974 899.767 353.63 899.967 354.551L900.206 355.658C900.474 356.893 899.544 358.063 898.28 358.081L795.316 359.56C794.2 359.576 793.287 358.676 793.287 357.561V357.159C793.287 357.016 793.303 356.873 793.333 356.732L812.621 268.513L815.519 239.223C815.62 238.199 816.481 237.42 817.509 237.42H830.403C831.662 237.42 832.613 238.545 832.382 239.783C825.794 275.206 819.554 351.594 846.017 352.974Z" fill="black" fill-opacity="0.02"/>
<path d="M880.279 268.127L878.224 238.839C878.151 237.791 877.279 236.979 876.229 236.979H817.485C816.467 236.979 815.611 237.744 815.498 238.756L812.182 268.293L793.771 354.09C793.741 354.227 793.726 354.368 793.726 354.509V365.528C793.726 366.633 794.622 367.528 795.726 367.528H898.943C900.048 367.528 900.943 366.633 900.943 365.528V354.534C900.943 354.376 900.925 354.22 900.888 354.067L880.329 268.454C880.304 268.347 880.287 268.238 880.279 268.127Z" fill="#ADC4EB" fill-opacity="0.07"/>
<path d="M880.279 268.127L878.224 238.839C878.151 237.791 877.279 236.979 876.229 236.979H817.485C816.467 236.979 815.611 237.744 815.498 238.756L812.182 268.293L793.771 354.09C793.741 354.227 793.726 354.368 793.726 354.509V365.528C793.726 366.633 794.622 367.528 795.726 367.528H898.943C900.048 367.528 900.943 366.633 900.943 365.528V354.534C900.943 354.376 900.925 354.22 900.888 354.067L880.329 268.454C880.304 268.347 880.287 268.238 880.279 268.127Z" stroke="#2957A4" stroke-width="2.5"/>
<rect width="126.779" height="9.16092" rx="2" transform="matrix(-1 0 0 1 910.609 358.367)" fill="white" stroke="#2957A4" stroke-width="2"/>
<rect width="68.5485" height="7.93884" rx="2" transform="matrix(-1 0 0 1 880.73 230.363)" fill="white"/>
<rect width="41.3048" height="7.93884" transform="matrix(-1 0 0 1 853.487 230.363)" fill="#ADC4EB" fill-opacity="0.2"/>
<rect width="68.5485" height="7.93884" rx="1" transform="matrix(-1 0 0 1 880.73 230.363)" stroke="#2957A4" stroke-width="2.5" stroke-linejoin="bevel"/>
</g>
<path d="M766.564 213.426C826.219 231.765 841.918 351.757 843.488 355.424V213.426H766.564Z" fill="white" fill-opacity="0.31"/>
<path d="M842.953 249.939L840.479 214.762C840.406 213.714 839.534 212.902 838.484 212.902H767.828C766.81 212.902 765.954 213.667 765.84 214.679L761.854 250.105L739.92 352.073C739.891 352.211 739.876 352.352 739.876 352.493V366C739.876 367.105 740.771 368 741.876 368H865.56C866.665 368 867.56 367.105 867.56 366V352.518C867.56 352.36 867.541 352.203 867.505 352.05L843.004 250.267C842.978 250.159 842.961 250.049 842.953 249.939Z" fill="white"/>
<path d="M841.001 226.815C840.928 225.767 840.057 224.954 839.006 224.954H767.071C766.041 224.954 765.18 225.736 765.08 226.76L764.553 232.192C764.439 233.367 765.362 234.385 766.543 234.385H839.383C840.542 234.385 841.458 233.403 841.378 232.247L841.001 226.815Z" fill="#B22A2D" fill-opacity="0.4" stroke="#B22A2D" stroke-opacity="0.4" stroke-linecap="round"/>
<path d="M841.635 242.268C841.56 241.221 840.69 240.411 839.641 240.411H764.875C763.848 240.411 762.988 241.189 762.885 242.211L762.338 247.642C762.219 248.82 763.144 249.843 764.327 249.843H840.031C841.192 249.843 842.11 248.857 842.026 247.699L841.635 242.268Z" fill="#B22A2D" fill-opacity="0.4"/>
<path d="M832.761 215.623C834.157 214.954 836.948 214.017 836.948 215.623C836.948 216.525 841.681 230.943 843.489 261.37C844.902 285.15 843.489 320.237 843.489 356.21H832.761V215.623Z" fill="white" fill-opacity="0.29"/>
<path d="M802.148 357.52V213.95H766.564L762.378 247.485L739.353 352.281V357.52H802.148Z" fill="#ADC4EB" fill-opacity="0.09"/>
<path d="M802.148 350.709C832.512 352.288 854.89 350.892 864.383 350.725C865.324 350.708 866.133 351.365 866.332 352.284L866.78 354.345C867.048 355.58 866.118 356.751 864.854 356.77L741.381 358.539C740.265 358.555 739.352 357.655 739.352 356.54V355.641C739.352 355.497 739.368 355.354 739.399 355.213L762.377 250.367L765.862 215.229C765.963 214.206 766.824 213.426 767.852 213.426H784.016C785.276 213.426 786.229 214.542 785.996 215.78C778.119 257.661 770.52 349.064 802.148 350.709Z" fill="black" fill-opacity="0.02"/>
<path d="M842.953 249.939L840.479 214.762C840.406 213.714 839.534 212.902 838.484 212.902H767.828C766.81 212.902 765.954 213.667 765.84 214.679L761.854 250.105L739.92 352.073C739.891 352.211 739.876 352.352 739.876 352.493V366C739.876 367.105 740.771 368 741.876 368H865.56C866.665 368 867.56 367.105 867.56 366V352.518C867.56 352.36 867.541 352.203 867.505 352.05L843.004 250.267C842.978 250.159 842.961 250.049 842.953 249.939Z" stroke="#2957A4" stroke-width="2.5"/>
<rect width="150.981" height="10.8835" rx="2" transform="matrix(-1 0 0 1 879.072 357.116)" fill="white" stroke="#2957A4" stroke-width="2.5"/>
<rect width="81.6344" height="9.43162" rx="2" transform="matrix(-1 0 0 1 843.488 205.043)" fill="white"/>
<rect width="49.19" height="9.43162" transform="matrix(-1 0 0 1 811.044 205.043)" fill="#ADC4EB" fill-opacity="0.2"/>
<rect width="81.6344" height="9.43162" rx="1" transform="matrix(-1 0 0 1 843.488 205.043)" stroke="#2957A4" stroke-width="2.5" stroke-linejoin="bevel"/>
<g opacity="0.11">
<path d="M529.394 340.46C470.786 329.976 443.924 352.315 439.854 372.132V373.77H442.296L476.484 366.944L496.02 364.76L522.475 365.966L543.639 369.402L577.013 375.408C585.56 368.127 588.002 350.945 529.394 340.46Z" fill="#53C931"/>
<path d="M529.394 340.671C470.786 330.187 443.924 352.526 439.854 372.343V373.981H442.296L445.129 368.795C448.632 362.383 453.387 356.739 459.112 352.2C465.143 347.419 472.408 344.452 480.061 343.644L495.981 341.964C504.112 341.106 512.321 341.312 520.4 342.578L535.092 344.881L555.849 350.615L566.061 353.987C575.044 356.954 579.939 366.623 577.013 375.619C585.56 368.338 588.002 351.156 529.394 340.671Z" fill="#FDFFFC" fill-opacity="0.54"/>
<path d="M529.394 340.671C470.786 330.187 443.924 352.526 439.854 372.343V373.981H442.296L476.484 367.155L496.02 364.971L522.475 366.177L543.639 369.613L577.013 375.619C585.56 368.338 588.002 351.156 529.394 340.671Z" stroke="#2957A4" stroke-width="2"/>
<path d="M544.046 361.795C545.946 360.157 551.047 357.864 556.256 361.795" stroke="#2957A4" stroke-width="3" stroke-linecap="round"/>
</g>
<g opacity="0.11">
<path d="M582.711 363.748C594.031 360.155 616.042 356.879 650.97 367.286C677.487 375.187 648.675 380.125 631.785 382.018C644.979 381.187 665.028 380.169 658.651 380.853C646.523 382.154 634.395 383.269 621.459 382.897C611.109 382.6 587.231 380.915 576.585 380.11C578.472 378.933 582.245 376.356 582.245 375.463C582.245 374.348 585.967 372.336 582.711 363.748Z" fill="#53C931"/>
<path d="M619.437 367.307C604.56 364.779 591.188 366.37 583.103 368.229L580.677 367.114L587.5 366.006C624.693 359.167 645.704 370.592 662.009 378.955C630.476 368.547 638.034 370.466 619.437 367.307Z" fill="#FDFFFC" fill-opacity="0.54"/>
<path d="M583.986 365.081C595.306 361.488 615.689 357.394 650.617 367.802C685.546 378.209 634.849 383.475 631.48 383.413C626.898 383.227 668.001 380.328 658.298 381.369C646.17 382.67 634.042 383.785 621.106 383.413C610.756 383.116 586.878 381.431 576.232 380.625C578.119 379.448 581.519 376.789 581.892 375.979C582.765 374.079 585.207 371.625 583.986 365.081Z" stroke="#2957A4" stroke-width="2"/>
<path d="M614.269 368.93C615.149 368.369 617.514 367.584 619.929 368.93" stroke="#2957A4" stroke-width="2" stroke-linecap="round"/>
</g>
<g opacity="0.41">
<path d="M552.301 365.062L554.136 260.703C554.155 259.612 555.045 258.738 556.136 258.738H556.975C558.063 258.738 558.952 259.609 558.974 260.697L561.115 365.056C561.138 366.176 560.236 367.097 559.116 367.097H554.301C553.182 367.097 552.281 366.18 552.301 365.062Z" fill="#ADC4EB" stroke="#2957A4" stroke-width="1.5"/>
<path d="M549.894 365.527V314.157C549.894 313.052 550.789 312.157 551.894 312.157H561.232C562.337 312.157 563.232 313.052 563.232 314.157V365.527C563.232 366.632 562.337 367.527 561.232 367.527H551.894C550.789 367.527 549.894 366.632 549.894 365.527Z" fill="#ADC4EB"/>
<path d="M549.001 309.692L549.824 306.25C550.039 305.35 550.844 304.715 551.769 304.715H561.178C562.048 304.715 562.819 305.278 563.083 306.108L564.18 309.55C564.591 310.84 563.629 312.157 562.275 312.157H550.947C549.654 312.157 548.701 310.949 549.001 309.692Z" fill="#B22A2D" fill-opacity="0.4"/>
<path d="M562.346 324.946C556.242 331.638 551.741 348.829 550.783 356.81V314.455C550.783 313.35 551.679 312.455 552.783 312.455H560.936C562.04 312.455 562.936 313.35 562.936 314.455V323.489C562.936 324.031 562.711 324.546 562.346 324.946Z" fill="#DEE8F7"/>
<path d="M562.396 314.18C555.745 317.114 549.894 320.554 549.894 333.888V314.455C549.894 313.35 550.789 312.455 551.894 312.455H562.037C562.533 312.455 562.936 312.857 562.936 313.354C562.936 313.712 562.723 314.035 562.396 314.18Z" fill="white"/>
<path d="M554.043 357.841V367.451C554.043 367.493 554.077 367.527 554.119 367.527H559.006C559.048 367.527 559.082 367.493 559.082 367.451V357.841C559.082 356.45 557.954 355.322 556.563 355.322C555.171 355.322 554.043 356.45 554.043 357.841Z" fill="#ADC4EB" stroke="#2957A4" stroke-width="1.5" stroke-linecap="round"/>
<path d="M555.254 308.162L549.982 311.506C549.924 311.543 549.86 311.57 549.793 311.587C549.311 311.708 548.879 311.262 549.015 310.784L550.123 306.888C550.344 306.113 551.008 305.546 551.809 305.45L562.7 304.148C562.855 304.129 563.012 304.147 563.159 304.201C564.078 304.537 564.009 305.859 563.06 306.098L555.838 307.911C555.631 307.963 555.434 308.048 555.254 308.162Z" fill="white" fill-opacity="0.96"/>
<path d="M551.125 307.573L549.767 310.234C549.707 310.35 549.601 310.436 549.475 310.469C549.134 310.557 548.825 310.245 548.918 309.905L549.802 306.671C550.016 305.889 550.68 305.314 551.485 305.214L560.117 304.14C560.226 304.126 560.337 304.14 560.44 304.179C561.096 304.428 560.985 305.387 560.29 305.48L552.642 306.5C551.991 306.586 551.424 306.988 551.125 307.573Z" fill="white"/>
<path d="M552.404 312.455V319.004" stroke="#2957A4" stroke-width="1.4" stroke-linecap="round"/>
<path d="M555.665 312.455V324.065" stroke="#2957A4" stroke-width="1.4" stroke-linecap="round"/>
<path d="M548.707 310.925L550.007 305.482C550.115 305.032 550.517 304.715 550.98 304.715H561.909C562.344 304.715 562.729 304.996 562.862 305.411L564.596 310.853C564.801 311.498 564.32 312.157 563.643 312.157H549.679C549.033 312.157 548.557 311.553 548.707 310.925Z" stroke="#2957A4" stroke-width="1.5"/>
<path d="M554.043 280.304L559.378 277.625" stroke="#2957A4" stroke-width="1.5" stroke-linecap="round"/>
<path d="M549 367V315C549 313.895 549.896 313 551 313H562C563.105 313 564 313.895 564 315V367C564 368.105 563.105 369 562 369H551C549.896 369 549 368.105 549 367Z" stroke="#2957A4" stroke-width="1.5"/>
<path d="M513.733 265.122L543.077 252.322L540.41 250.833L513.733 265.122Z" fill="white"/>
<path d="M558.49 205.882L564.113 239.187L566.474 237.246L558.49 205.882Z" fill="white"/>
</g>
<path d="M490.11 356.535L492.656 211.666C492.675 210.576 493.565 209.701 494.656 209.701H497.272C498.361 209.701 499.249 210.572 499.272 211.66L502.242 356.529C502.265 357.65 501.363 358.57 500.243 358.57H492.109C490.991 358.57 490.09 357.653 490.11 356.535Z" fill="#ADC4EB" stroke="#2957A4" stroke-width="2"/>
<path d="M486.818 356.979V284.909C486.818 283.804 487.713 282.909 488.818 282.909H503.133C504.237 282.909 505.133 283.804 505.133 284.909V356.979C505.133 358.084 504.237 358.979 503.133 358.979H488.818C487.713 358.979 486.818 358.084 486.818 356.979Z" fill="#ADC4EB"/>
<path d="M485.371 280.444L486.858 274.22C487.073 273.32 487.878 272.684 488.803 272.684H502.857C503.727 272.684 504.498 273.248 504.762 274.078L506.745 280.302C507.155 281.592 506.193 282.909 504.839 282.909H487.317C486.024 282.909 485.071 281.701 485.371 280.444Z" fill="#B22A2D" fill-opacity="0.4" stroke="black"/>
<path d="M504.134 300.868C495.642 309.859 489.365 333.196 488.039 344.256V285.318C488.039 284.213 488.934 283.318 490.039 283.318H502.726C503.831 283.318 504.726 284.213 504.726 285.318V299.421C504.726 299.963 504.506 300.474 504.134 300.868Z" fill="#DEE8F7"/>
<path d="M503.984 285.688C494.852 289.719 486.818 294.446 486.818 312.765V285.318C486.818 284.213 487.713 283.318 488.818 283.318H503.49C504.172 283.318 504.726 283.871 504.726 284.554C504.726 285.045 504.434 285.489 503.984 285.688Z" fill="white"/>
<path d="M492.516 345.671V358.875C492.516 358.932 492.563 358.979 492.621 358.979H499.33C499.388 358.979 499.435 358.932 499.435 358.875V345.671C499.435 343.76 497.886 342.211 495.976 342.211C494.065 342.211 492.516 343.76 492.516 345.671Z" fill="#ADC4EB" stroke="#2957A4" stroke-width="1.5" stroke-linecap="round"/>
<path d="M494.279 277.356L486.939 282.014C486.859 282.065 486.771 282.103 486.68 282.126C486.017 282.292 485.423 281.679 485.61 281.023L487.268 275.192C487.489 274.416 488.153 273.849 488.954 273.753L504.402 271.905C504.615 271.88 504.831 271.905 505.033 271.978C506.296 272.44 506.201 274.257 504.897 274.584L494.864 277.105C494.657 277.157 494.459 277.241 494.279 277.356Z" fill="white" fill-opacity="0.96"/>
<path d="M488.687 276.262L486.643 280.267C486.561 280.427 486.415 280.544 486.242 280.589C485.774 280.711 485.349 280.282 485.477 279.815L486.824 274.889C487.037 274.107 487.702 273.531 488.506 273.431L500.855 271.895C501.005 271.876 501.158 271.895 501.299 271.948C502.2 272.29 502.047 273.608 501.092 273.736L490.204 275.188C489.552 275.275 488.985 275.676 488.687 276.262Z" fill="white"/>
<path d="M490.888 283.318V292.316" stroke="#2957A4" stroke-width="1.5" stroke-linecap="round"/>
<path d="M495.365 283.318V299.268" stroke="#2957A4" stroke-width="1.5" stroke-linecap="round"/>
<path d="M485.371 280.444L486.858 274.22C487.073 273.32 487.878 272.684 488.803 272.684H502.857C503.727 272.684 504.498 273.248 504.762 274.078L506.745 280.302C507.155 281.592 506.193 282.909 504.839 282.909H487.317C486.024 282.909 485.071 281.701 485.371 280.444Z" stroke="#2957A4" stroke-width="2"/>
<path d="M492.516 239.148L499.842 235.467" stroke="#2957A4" stroke-width="2" stroke-linecap="round"/>
<path d="M486.818 356.979V284.909C486.818 283.804 487.713 282.909 488.818 282.909H503.133C504.237 282.909 505.133 283.804 505.133 284.909V356.979C505.133 358.084 504.237 358.979 503.133 358.979H488.818C487.713 358.979 486.818 358.084 486.818 356.979Z" stroke="#2957A4" stroke-width="2"/>
<path d="M383.222 364.645C366.688 359.244 341.267 369.887 336.674 373.545L317.355 398.276L664.429 395.392V382.128V368.865C649.398 354.939 616.204 368.865 595.223 368.865C574.242 368.865 558.128 374.772 526.5 364.645C494.872 354.517 479.636 362.725 451.043 367.362C422.451 371.999 403.89 371.397 383.222 364.645Z" fill="#FAFAFA"/>
<path d="M447.952 368.135C472.691 360.919 493.372 353.813 525 364C556.628 374.187 574.242 369 595.223 369C616.204 369 649.398 354.993 664.429 369" stroke="#2957A4" stroke-width="3" stroke-linecap="round"/>
<path d="M611.396 256.776H756.15L765.27 243.313H772.627C773.103 243.313 773.514 243.649 773.608 244.116L798.603 368.234H788.855H785.73C785.335 368.234 784.982 367.997 784.792 367.651C782.095 362.735 775.939 364.556 775.333 366.668C774.848 368.358 770.039 368.439 767.439 368.255C767.254 368.242 767.08 368.176 766.929 368.067C763.179 365.34 755.742 361.041 754.263 364.477C752.377 368.86 742.628 370.425 738.225 366.668C734.916 363.844 731.347 363.932 729.711 364.385C729.519 364.439 729.357 364.565 729.235 364.721C725.825 369.103 721.257 368.963 719.209 368.291C719.098 368.255 719 368.197 718.91 368.123C715.365 365.202 706.816 360.98 699.86 366.668C693.032 372.253 686.834 371.619 684.36 370.53C684.212 370.464 684.089 370.358 683.992 370.229C681.473 366.879 675.074 361.756 668.413 366.668C661.621 371.678 657.197 371.26 655.835 370.425C650.757 366.573 644.885 366.27 642.296 366.622C642.1 366.649 641.923 366.742 641.775 366.873C639.32 369.061 633.456 372.118 627.847 368.234C620.614 363.224 614.01 364.477 610.551 368.234C607.784 371.239 605.625 369.486 604.891 368.234C603.116 364.7 597.3 364.152 593.649 364.358C592.981 364.396 592.425 363.812 592.536 363.151L610.41 257.609C610.492 257.128 610.908 256.776 611.396 256.776Z" fill="white"/>
<path d="M756.15 256.776H611.396C610.908 256.776 610.492 257.128 610.41 257.609L592.536 363.151C592.425 363.812 592.981 364.396 593.649 364.358C597.3 364.152 603.116 364.7 604.891 368.234C605.625 369.486 607.784 371.239 610.551 368.234C614.01 364.477 620.614 363.224 627.847 368.234C633.456 372.118 639.32 369.061 641.775 366.873C641.923 366.742 642.1 366.649 642.296 366.622C644.885 366.27 650.757 366.573 655.835 370.425C657.197 371.26 661.621 371.678 668.413 366.668C675.074 361.756 681.473 366.879 683.992 370.229C684.089 370.358 684.212 370.464 684.36 370.53C686.834 371.619 693.032 372.253 699.86 366.668C706.816 360.98 715.365 365.202 718.91 368.123C719 368.197 719.098 368.255 719.209 368.291C721.257 368.963 725.825 369.103 729.235 364.721C729.357 364.565 729.519 364.439 729.711 364.385C731.347 363.932 734.916 363.844 738.225 366.668C742.628 370.425 752.377 368.86 754.263 364.477C755.742 361.041 763.179 365.34 766.929 368.067C767.08 368.176 767.254 368.242 767.439 368.255C770.039 368.439 774.848 368.358 775.333 366.668C775.939 364.556 782.095 362.735 784.792 367.651C784.982 367.997 785.335 368.234 785.73 368.234H788.855M756.15 256.776L775.333 365.04M756.15 256.776L765.27 243.313M810 368.234H798.603M765.27 243.313H772.627C773.103 243.313 773.514 243.649 773.608 244.116L798.603 368.234M765.27 243.313L788.855 368.234M798.603 368.234H788.855" stroke="#2957A4" stroke-width="2" stroke-linejoin="bevel"/>
<path d="M648.096 270.551H622.726C622.234 270.551 621.815 270.909 621.738 271.395L620.185 281.196L606.332 368.643C606.235 369.25 606.705 369.799 607.319 369.799H635.771C636.274 369.799 636.699 369.424 636.763 368.925L647.643 283.075L649.088 271.677C649.164 271.08 648.698 270.551 648.096 270.551Z" fill="#DEDEDE"/>
<path d="M657.615 271.431L646.166 366.006C646.118 366.407 646.315 366.798 646.667 366.997L657.355 373.036C657.589 373.168 657.867 373.201 658.126 373.126L679.642 366.878C680.069 366.754 680.363 366.362 680.363 365.917V271.551C680.363 270.999 679.915 270.551 679.363 270.551H658.608C658.102 270.551 657.676 270.929 657.615 271.431Z" fill="#DEDEDE"/>
<path d="M686.652 370.319V271.551C686.652 270.999 687.1 270.551 687.652 270.551H708.416C708.918 270.551 709.343 270.924 709.407 271.423L722.047 368.719C722.123 369.3 721.685 369.821 721.099 369.847L687.696 371.318C687.127 371.344 686.652 370.889 686.652 370.319Z" fill="#DEDEDE"/>
<path d="M730.293 364.529L718.866 271.674C718.793 271.077 719.258 270.551 719.859 270.551H744.293C744.784 270.551 745.201 270.907 745.28 271.391L760.424 364.316C760.499 364.776 760.246 365.227 759.814 365.403L745.528 371.208C745.282 371.308 745.006 371.306 744.761 371.203L730.895 365.328C730.566 365.189 730.337 364.884 730.293 364.529Z" fill="#DEDEDE"/>
<path d="M648.096 270.551H622.726C622.234 270.551 621.815 270.909 621.738 271.395L620.185 281.196L606.332 368.643C606.235 369.25 606.705 369.799 607.319 369.799H635.771C636.274 369.799 636.699 369.424 636.763 368.925L647.643 283.075L649.088 271.677C649.164 271.08 648.698 270.551 648.096 270.551Z" stroke="#2957A4" stroke-width="2" stroke-linejoin="bevel"/>
<path d="M657.615 271.431L646.166 366.006C646.118 366.407 646.315 366.798 646.667 366.997L657.355 373.036C657.589 373.168 657.867 373.201 658.126 373.126L679.642 366.878C680.069 366.754 680.363 366.362 680.363 365.917V271.551C680.363 270.999 679.915 270.551 679.363 270.551H658.608C658.102 270.551 657.676 270.929 657.615 271.431Z" stroke="#2957A4" stroke-width="2" stroke-linejoin="bevel"/>
<path d="M686.652 370.319V271.551C686.652 270.999 687.1 270.551 687.652 270.551H708.416C708.918 270.551 709.343 270.924 709.407 271.423L722.047 368.719C722.123 369.3 721.685 369.821 721.099 369.847L687.696 371.318C687.127 371.344 686.652 370.889 686.652 370.319Z" stroke="#2957A4" stroke-width="2" stroke-linejoin="bevel"/>
<path d="M730.293 364.529L718.866 271.674C718.793 271.077 719.258 270.551 719.859 270.551H744.293C744.784 270.551 745.201 270.907 745.28 271.391L760.424 364.316C760.499 364.776 760.246 365.227 759.814 365.403L745.528 371.208C745.282 371.308 745.006 371.306 744.761 371.203L730.895 365.328C730.566 365.189 730.337 364.884 730.293 364.529Z" stroke="#2957A4" stroke-width="2" stroke-linejoin="bevel"/>
<path d="M726.017 283.023C724.18 282.399 722.479 283.01 721.326 283.549C720.944 283.728 720.727 284.137 720.777 284.557L730.143 363.392C730.183 363.727 730.388 364.019 730.69 364.17L742.926 370.261C743.14 370.367 743.384 370.393 743.615 370.335L760.13 366.188C760.635 366.061 760.959 365.568 760.873 365.054L747.038 281.869C746.984 281.546 746.776 281.266 746.473 281.14C743.367 279.845 739.957 280.063 738.262 282.273C737.849 282.81 737.058 283.029 736.5 282.644C731.936 279.491 728.95 280.911 727.567 282.58C727.199 283.024 726.563 283.209 726.017 283.023Z" fill="#DEE8F7"/>
<path d="M757.723 347.883C756.968 357.902 738.959 359.363 730.049 358.841V366.042L743.571 371.678L761.182 366.042L757.723 347.883Z" fill="#ADC4EB"/>
<path d="M721.997 293.426C722.009 293.499 722.02 293.571 722.03 293.641L721.997 293.426C721.558 290.7 720.122 286.468 722.266 284.562C722.476 284.376 722.725 284.228 723 284.136C724.089 282.594 725.568 282.001 726.826 283.701C727.329 282.699 729.289 281.509 730.207 281.04C733.351 279.6 736.443 282.005 737.597 283.388L737.832 282.84C740.537 278.958 744.725 280.022 746.48 281.04L747.188 284.953C744.295 281.071 739.955 280.846 737.597 286.049C735.788 282.605 730.6 281.275 728.634 284.562C727.357 286.698 728.66 297.137 729.263 302.251C728.949 299.929 728.115 294.127 727.298 289.493C726.444 284.657 724.393 283.673 723 284.136C721.901 285.693 721.199 288.219 721.523 290.33L721.997 293.426Z" fill="white"/>
<path d="M726.747 283.31L730.206 308.669" stroke="#2957A4" stroke-width="2" stroke-linecap="round"/>
<path d="M737.596 283.388L741.213 304.834" stroke="#2957A4" stroke-width="2" stroke-linecap="round"/>
<path d="M725.54 282.395C723.468 281.091 721.38 282.236 720.631 283.203C720.505 283.366 720.471 283.576 720.496 283.78L730.142 363.394C730.182 363.728 730.388 364.019 730.689 364.169L742.926 370.261C743.14 370.367 743.384 370.393 743.615 370.335L760.129 366.189C760.635 366.062 760.958 365.568 760.872 365.054L746.934 281.791C746.895 281.559 746.777 281.344 746.588 281.203C744.059 279.314 740.426 279.806 738.622 281.627C738.025 282.229 736.766 282.471 736.097 281.951C733.014 279.556 729.507 280.73 727.756 282.217C727.189 282.698 726.169 282.791 725.54 282.395Z" stroke="#2957A4" stroke-width="2"/>
<path d="M568.036 367.654L594.032 243.795C594.129 243.332 594.538 243 595.011 243H601.746L609.885 256.302C610.011 256.507 610.058 256.749 610.019 256.986L592.398 363.955C592.344 364.281 592.132 364.559 591.836 364.705C590.25 365.489 587.572 367.011 586.182 368.494C585.973 368.717 585.687 368.86 585.381 368.86H577.218H569.015C568.38 368.86 567.906 368.276 568.036 367.654Z" fill="white"/>
<path d="M577.218 368.86H569.015C568.38 368.86 567.906 368.276 568.036 367.654L594.032 243.795C594.129 243.332 594.538 243 595.011 243H601.746M577.218 368.86L601.746 243M577.218 368.86H585.381C585.687 368.86 585.973 368.717 586.182 368.494C587.572 367.011 590.25 365.489 591.836 364.705C592.132 364.559 592.344 364.281 592.398 363.955L610.019 256.986C610.058 256.749 610.011 256.507 609.885 256.302L601.746 243" stroke="#2957A4" stroke-width="2" stroke-linejoin="bevel"/>
<path d="M693.007 287.55C691.776 285.226 689.648 284.069 688.058 283.61C687.486 283.445 686.968 283.908 686.969 284.503L687.122 371.198C687.123 371.79 687.636 372.251 688.224 372.191L721.165 368.808C721.725 368.751 722.127 368.242 722.055 367.684L711.845 289.449C711.822 289.273 711.749 289.1 711.638 288.961C705.3 280.99 698.98 284.113 695.569 287.952C694.94 288.661 693.451 288.388 693.007 287.55Z" fill="#DEE8F7"/>
<path d="M720.583 360.093C714.227 362.397 696.189 364.451 687.281 361.961V373.4L722.188 369.12L720.583 360.093Z" fill="#ADC4EB"/>
<path d="M691.527 292.311C690.206 288.429 688.435 287.667 687.282 288.397L686.888 283.466C692.234 284.03 693.728 288.502 693.807 290.667C694.619 289.702 696.951 285.971 700.961 284.718C705.255 283.377 709.871 286.519 711.967 288.945V292.311L711.024 290.667C703.036 281.507 696.173 298.633 696.035 310.787L695.694 341.074C695.143 326.019 692.848 296.193 691.527 292.311Z" fill="white"/>
<path d="M693.007 287.55C691.776 285.226 689.648 284.069 688.058 283.61C687.486 283.445 686.968 283.908 686.969 284.503L687.122 371.198C687.123 371.79 687.636 372.251 688.224 372.191L721.165 368.808C721.725 368.751 722.127 368.242 722.055 367.684L711.845 289.449C711.822 289.273 711.749 289.1 711.638 288.961C705.3 280.99 698.98 284.113 695.569 287.952C694.94 288.661 693.451 288.388 693.007 287.55Z" stroke="#2957A4" stroke-width="2"/>
<path d="M693.885 289.65L696.087 341.308" stroke="#2957A4" stroke-width="2" stroke-linecap="round"/>
<path d="M708.036 302.016L711.967 351.797" stroke="#2957A4" stroke-width="2" stroke-linecap="round"/>
<path d="M733.823 324.089L737.282 350.701" stroke="#2957A4" stroke-width="2" stroke-linecap="round"/>
<path d="M697.187 354.145V367.764" stroke="#2957A4" stroke-width="2" stroke-linecap="round"/>
<path d="M627.479 282.666C625.718 279.47 622.58 279.899 620.719 281.047C620.495 281.185 620.354 281.42 620.312 281.68L606.025 368.637C605.925 369.246 606.395 369.799 607.012 369.799H635.17C635.661 369.799 636.081 369.436 636.158 368.951C641.389 335.964 643.279 312.061 647.005 284.509C647.021 284.389 647.017 284.264 646.982 284.148C646.228 281.673 642.301 281.762 640.195 282.954C639.575 283.304 638.628 283.297 638.148 282.771C634.709 279.009 631.584 280.885 629.394 283.019C628.832 283.566 627.858 283.352 627.479 282.666Z" fill="#DEE8F7"/>
<path d="M646.715 284.718C645.641 282.581 641.991 283.968 639.892 285.748C639.525 286.06 638.967 286.061 638.64 285.708C637.168 284.12 635.429 282.345 633.277 282.587C631.44 282.795 629.848 284.293 629.262 287.771C627.522 298.103 625.724 314.696 622.737 310.939C621.322 308.2 624.073 299.825 626.275 287.771C626.804 280.883 622.029 280.883 620.535 282.84C619.828 281.822 620.095 281.76 620.535 281.196C621.086 280.492 623.287 279.866 625.488 280.883C627.249 281.697 628.056 283.518 628.24 284.327C630.913 281.118 632.95 280.568 635.316 281.196C636.495 281.509 638.382 283.101 639.246 284.327C639.797 283.231 642.155 281.196 644.356 282.37C645.688 283.081 646.793 284.014 646.715 284.718Z" fill="white"/>
<path d="M636.718 359.853C621.338 355.551 615.706 349.252 611.719 342.744C611.22 341.93 609.957 342.173 609.822 343.117L606.154 368.814C606.068 369.417 606.536 369.956 607.144 369.956H635.17C635.661 369.956 636.08 369.598 636.157 369.113L637.453 360.983C637.534 360.478 637.211 359.991 636.718 359.853Z" fill="#ADC4EB"/>
<path d="M627.479 282.666C625.718 279.47 622.58 279.899 620.719 281.047C620.495 281.185 620.354 281.42 620.312 281.68L606.025 368.637C605.925 369.246 606.395 369.799 607.012 369.799H635.17C635.661 369.799 636.081 369.436 636.158 368.951C641.389 335.964 643.279 312.061 647.005 284.509C647.021 284.389 647.017 284.265 646.981 284.149C646.258 281.793 642.448 281.394 640.369 282.691C639.65 283.139 638.316 283.295 637.711 282.702C634.452 279.502 631.504 281.072 629.408 283.032C628.835 283.568 627.858 283.352 627.479 282.666Z" stroke="#2957A4" stroke-width="2" stroke-linejoin="bevel"/>
<path d="M639.089 284.092L637.438 293.798" stroke="#2957A4" stroke-width="2" stroke-linecap="round"/>
<path d="M619.671 344.126L617.469 365.103" stroke="#2957A4" stroke-width="2" stroke-linecap="round" stroke-linejoin="bevel"/>
<path d="M628.319 284.171L623.602 309.217" stroke="#2957A4" stroke-width="2" stroke-linecap="round" stroke-linejoin="bevel"/>
<path d="M669.671 285.271C662.879 276.474 657.617 281.605 655.835 285.271L646.715 373.243H680.678V285.271C677.407 279.939 671.977 283.049 669.671 285.271Z" fill="#DEE8F7"/>
<path d="M662.674 284.101C658.649 284.852 656.556 288.502 656.556 290.276L655.834 285.266C657.721 281.744 659.608 280.961 662.674 280.57C665.127 280.257 668.518 283.57 669.907 285.266C671.715 284.484 671.558 283.466 675.096 282.605C677.926 281.916 679.367 283.544 680.049 284.718V288.887C675.52 284.128 671.243 287.04 669.357 290.276C668.204 287.875 666.699 283.349 662.674 284.101Z" fill="white"/>
<path d="M679.416 361.633C666.883 363.744 654.589 362.651 648.86 361.651C648.236 361.542 647.658 362.018 647.658 362.651V370.051C647.658 370.604 648.106 371.051 648.658 371.051H679.599C680.151 371.051 680.599 370.604 680.599 370.051V362.626C680.599 362.001 680.032 361.529 679.416 361.633Z" fill="#ADC4EB"/>
<path d="M680.206 285.271C676.936 279.939 671.977 283.049 669.671 285.271C662.453 275.922 655.943 282.794 654.744 294.544L646.715 373.243H680.678L680.206 285.271Z" stroke="#2957A4" stroke-width="2"/>
<path d="M669.671 285.579L666.212 321.897" stroke="#2957A4" stroke-width="2" stroke-linecap="round"/>
<path d="M449 368L74 368" stroke="#2957A4" stroke-width="3" stroke-linecap="round"/>
<g opacity="0.08">
<path d="M227.515 276.553C241.85 302.943 267.893 336.104 307.302 298.404M227.515 256.774C241.85 283.164 267.893 320.846 307.302 283.146" stroke="#BED0EF" stroke-width="4"/>
<path d="M183.037 276.553C197.372 302.943 234.984 329.297 273.52 298.593" stroke="#BED0EF" stroke-width="4"/>
<path d="M183.037 256.586C197.372 282.976 234.111 320.281 273.52 282.581" stroke="#BED0EF" stroke-width="4"/>
<path d="M183.037 237.749C197.372 264.139 233.941 305.985 273.35 268.286" stroke="#BED0EF" stroke-width="4"/>
<path d="M228.194 237.749C240.643 264.121 272.399 305.939 306.623 268.265" stroke="#BED0EF" stroke-width="4"/>
<path d="M221.547 211H189.577C187.461 211 186.794 213.858 188.693 214.794L204.567 222.623C205.121 222.896 205.771 222.898 206.326 222.627L222.421 214.799C224.33 213.87 223.669 211 221.547 211Z" stroke="#2957A4" stroke-width="4"/>
<path d="M300.298 248.674H280.587C278.47 248.674 277.804 251.534 279.704 252.469L289.492 257.285C290.045 257.557 290.693 257.559 291.248 257.289L301.171 252.474C303.081 251.547 302.421 248.674 300.298 248.674Z" stroke="#2957A4" stroke-width="4"/>
<path d="M189.018 229.084L222.31 229.084C224.387 229.084 225.088 226.309 223.26 225.323L206.728 216.406C206.139 216.089 205.43 216.087 204.839 216.401L188.078 225.318C186.239 226.296 186.934 229.084 189.018 229.084Z" stroke="#2957A4" stroke-width="4"/>
<path d="M280.094 262.237L300.996 262.237C303.078 262.237 303.774 259.452 301.937 258.472L291.558 252.94C290.973 252.628 290.272 252.626 289.686 252.934L279.163 258.467C277.315 259.439 278.005 262.237 280.094 262.237Z" stroke="#2957A4" stroke-width="4"/>
<path d="M187.364 248.674L223.493 248.674C225.483 248.674 226.252 246.084 224.584 244.998L205.896 232.833C205.213 232.388 204.329 232.403 203.661 232.869L186.219 245.034C184.614 246.154 185.406 248.674 187.364 248.674Z" stroke="#2957A4" stroke-width="4"/>
<path d="M278.367 276.93L302.249 276.93C304.24 276.93 305.008 274.337 303.338 273.253L290.986 265.23C290.304 264.787 289.421 264.801 288.754 265.266L277.225 273.288C275.618 274.407 276.409 276.93 278.367 276.93Z" stroke="#2957A4" stroke-width="4"/>
<path d="M187.438 268.265L223.568 268.265C225.552 268.265 226.325 265.688 224.669 264.596L206.231 252.43C205.551 251.982 204.667 251.99 203.996 252.452L186.305 264.617C184.687 265.73 185.474 268.265 187.438 268.265Z" stroke="#2957A4" stroke-width="4"/>
<path d="M278.442 291.623L302.324 291.623C304.309 291.623 305.082 289.044 303.424 287.952L291.236 279.93C290.557 279.483 289.675 279.491 289.005 279.951L277.311 287.974C275.69 289.086 276.477 291.623 278.442 291.623Z" stroke="#2957A4" stroke-width="4"/>
<path d="M192.846 335.702L217.608 335.702C218.579 335.702 219.366 334.915 219.366 333.945C219.366 333.391 219.105 332.869 218.661 332.538L205.939 323.017C205.241 322.495 204.284 322.485 203.576 322.993L191.68 331.525C191.156 331.9 190.846 332.505 190.846 333.15L190.846 333.702C190.846 334.807 191.741 335.702 192.846 335.702Z" stroke="#2957A4" stroke-width="4"/>
<path d="M281.235 342.483L299.533 342.483C300.261 342.483 300.851 341.893 300.851 341.165C300.851 340.75 300.656 340.359 300.323 340.11L291.075 333.189C290.376 332.667 289.42 332.657 288.711 333.165L280.201 339.268C279.737 339.601 279.461 340.138 279.461 340.71C279.461 341.689 280.256 342.483 281.235 342.483Z" stroke="#2957A4" stroke-width="4"/>
<path d="M192.544 313.097L203.389 321.403C204.103 321.949 205.093 321.953 205.81 321.411L216.819 313.097M192.544 313.097L204.597 297.651M192.544 313.097L196.154 285.972M216.819 313.097L204.597 297.651M216.819 313.097L213.876 287.29M211.727 268.453L204.597 276.742M211.727 268.453L213.876 287.29M211.727 268.453L204.597 262.991M211.727 268.453V256.398M198.485 268.453L204.597 276.742M198.485 268.453L196.154 285.972M198.485 268.453L204.597 262.991M198.485 268.453V256.398M204.597 297.651L213.876 287.29M204.597 297.651L196.154 285.972M204.597 276.742L196.154 285.972M204.597 276.742L213.876 287.29M204.597 262.991L198.485 256.398M204.597 262.991L211.727 256.398M198.485 256.398V246.037M211.727 256.398V246.037M198.485 246.037L211.727 235.677M198.485 246.037V235.677M198.485 246.037L203.317 250.654C204.048 251.352 205.184 251.395 205.966 250.755L211.727 246.037M211.727 235.677V213.188C211.727 212.084 210.831 211.188 209.727 211.188H200.485C199.381 211.188 198.485 212.084 198.485 213.188V235.677M211.727 235.677V246.037M198.485 235.677L211.727 246.037M201.881 336.267L190.167 364.9M220.045 364.9L207.483 336.267" stroke="#2957A4" stroke-width="4"/>
<path d="M280.565 325.356L288.394 331.371C289.109 331.92 290.103 331.924 290.821 331.38L298.772 325.356M280.565 325.356L289.604 313.733M280.565 325.356L283.272 304.945M298.772 325.356L289.604 313.733M298.772 325.356L296.564 305.937M294.952 291.763L289.604 298M294.952 291.763L296.564 305.937M294.952 291.763L289.604 287.653M294.952 291.763V282.692M285.021 291.763L289.604 298M285.021 291.763L283.272 304.945M285.021 291.763L289.604 287.653M285.021 291.763V282.692M289.604 313.733L296.564 305.937M289.604 313.733L283.272 304.945M289.604 298L283.272 304.945M289.604 298L296.564 305.937M289.604 287.653L285.021 282.692M289.604 287.653L294.952 282.692M285.021 282.692V274.896M294.952 282.692V274.896M285.021 274.896L294.952 267.101M285.021 274.896V267.101M285.021 274.896L288.323 278.061C289.054 278.762 290.194 278.806 290.976 278.163L294.952 274.896M294.952 267.101V250.674C294.952 249.57 294.057 248.674 292.952 248.674H287.021C285.916 248.674 285.021 249.57 285.021 250.674V267.101M294.952 267.101V274.896M285.021 267.101L294.952 274.896M287.567 342.79L278.782 364.334M301.191 364.334L291.769 342.79" stroke="#2957A4" stroke-width="4"/>
<path d="M192.714 312.909L186.544 362.275C186.394 363.468 187.325 364.523 188.528 364.523H190.337M216.989 312.909L223.482 362.262C223.64 363.46 222.708 364.523 221.5 364.523H219.536" stroke="#2957A4" stroke-width="4"/>
<path d="M280.912 325.153L276.347 361.71C276.198 362.904 277.129 363.958 278.331 363.958H279.126M299.146 325.153L303.949 361.697C304.107 362.895 303.174 363.958 301.966 363.958H301.314" stroke="#2957A4" stroke-width="4"/>
<rect x="181" y="229.084" width="3.73474" height="7.91161" rx="1.86737" stroke="#2957A4" stroke-width="4"/>
<rect x="271.992" y="262.237" width="2.71618" height="6.02789" rx="1.35809" stroke="#2957A4" stroke-width="4"/>
<rect x="181" y="248.674" width="3.73474" height="7.91161" rx="1.86737" stroke="#2957A4" stroke-width="4"/>
<rect x="271.992" y="276.93" width="2.71618" height="6.02789" rx="1.35809" stroke="#2957A4" stroke-width="4"/>
<rect x="181" y="268.642" width="3.73474" height="7.91161" rx="1.86737" stroke="#2957A4" stroke-width="4"/>
<rect x="271.992" y="292" width="2.71618" height="6.02789" rx="1.35809" stroke="#2957A4" stroke-width="4"/>
<rect x="225.477" y="229.084" width="3.73474" height="7.91161" rx="1.86737" stroke="#2957A4" stroke-width="4"/>
<rect x="305.265" y="262.237" width="3.0557" height="6.02789" rx="1.52785" stroke="#2957A4" stroke-width="4"/>
<rect x="225.477" y="248.674" width="3.73474" height="7.91161" rx="1.86737" stroke="#2957A4" stroke-width="4"/>
<rect x="305.265" y="276.93" width="3.0557" height="6.02789" rx="1.52785" stroke="#2957A4" stroke-width="4"/>
<rect x="225.477" y="268.642" width="3.73474" height="7.91161" rx="1.86737" stroke="#2957A4" stroke-width="4"/>
<rect x="305.265" y="292" width="3.0557" height="6.02789" rx="1.52785" stroke="#2957A4" stroke-width="4"/>
<g opacity="0.14">
<ellipse cx="252.771" cy="330.004" rx="9.88726" ry="18.2587" fill="#53C931" stroke="#2957A4" stroke-width="4"/>
<path d="M246.67 322.238C246.67 319.202 249.907 313.332 253.737 314.142" stroke="white" stroke-opacity="0.2" stroke-width="4" stroke-linecap="round"/>
<path d="M252.597 333.428L252.597 365" stroke="#2957A4" stroke-width="4" stroke-linecap="round"/>
<path d="M252.597 339.894L247.74 328.292" stroke="#2957A4" stroke-width="4" stroke-linecap="round"/>
<path d="M250.342 333.808L255.026 325.63" stroke="#2957A4" stroke-width="4" stroke-linecap="round"/>
<path d="M253.291 327.912L251.73 322.967" stroke="#2957A4" stroke-width="4" stroke-linecap="round"/>
<path d="M252.424 338.563L257.454 332.667" stroke="#2957A4" stroke-width="4" stroke-linecap="round"/>
</g>
</g>
<path d="M403.252 218.896C346.024 236.584 330.964 352.32 329.458 355.858V218.896H403.252Z" fill="white" fill-opacity="0.31"/>
<path d="M329.972 254.108L332.34 220.251C332.413 219.203 333.285 218.39 334.335 218.39H401.965C402.984 218.39 403.839 219.156 403.953 220.168L407.77 254.273L428.809 352.619C428.839 352.756 428.854 352.897 428.854 353.037V365.988C428.854 367.092 427.958 367.988 426.854 367.988H308.366C307.262 367.988 306.366 367.092 306.366 365.988V353.062C306.366 352.905 306.385 352.749 306.421 352.596L329.922 254.434C329.947 254.327 329.964 254.218 329.972 254.108Z" fill="white"/>
<path d="M331.84 231.877C331.912 230.828 332.784 230.014 333.835 230.014H402.691C403.721 230.014 404.582 230.797 404.681 231.822L405.174 236.919C405.287 238.094 404.363 239.111 403.183 239.111H333.483C332.325 239.111 331.408 238.13 331.488 236.974L331.84 231.877Z" fill="#B22A2D" fill-opacity="0.4"/>
<path d="M331.231 246.781C331.306 245.734 332.177 244.924 333.226 244.924H404.798C405.825 244.924 406.685 245.702 406.788 246.724L407.298 251.821C407.416 252.999 406.492 254.021 405.308 254.021H332.861C331.7 254.021 330.783 253.036 330.866 251.878L331.231 246.781Z" fill="#B22A2D" fill-opacity="0.4"/>
<path d="M339.749 221.015C338.41 220.369 335.733 219.465 335.733 221.015C335.733 221.885 331.192 235.791 329.458 265.139C328.102 288.076 329.458 321.919 329.458 356.616H339.749V221.015Z" fill="white" fill-opacity="0.29"/>
<path d="M369.116 357.88V219.401H403.252L407.268 251.746L429.355 352.826V357.88H369.116Z" fill="#ADC4EB" fill-opacity="0.09"/>
<path d="M369.116 351.31C340.062 352.829 318.63 351.493 309.484 351.326C308.542 351.309 307.73 351.967 307.531 352.887L307.132 354.735C306.866 355.969 307.796 357.139 309.058 357.157L427.327 358.861C428.442 358.877 429.355 357.977 429.355 356.861V356.074C429.355 355.93 429.34 355.788 429.31 355.648L407.268 254.526L403.931 220.699C403.83 219.676 402.97 218.896 401.941 218.896H386.606C385.347 218.896 384.395 220.012 384.626 221.25C392.176 261.683 399.436 349.724 369.116 351.31Z" fill="black" fill-opacity="0.02"/>
<path d="M329.972 254.108L332.34 220.251C332.413 219.203 333.285 218.39 334.335 218.39H401.965C402.984 218.39 403.839 219.156 403.953 220.168L407.77 254.273L428.809 352.619C428.839 352.756 428.854 352.897 428.854 353.037V365.988C428.854 367.092 427.958 367.988 426.854 367.988H308.366C307.262 367.988 306.366 367.092 306.366 365.988V353.062C306.366 352.905 306.385 352.749 306.421 352.596L329.922 254.434C329.947 254.327 329.964 254.218 329.972 254.108Z" stroke="#2957A4" stroke-width="2.5"/>
<rect x="295.323" y="357.49" width="144.836" height="10.4975" rx="2" fill="white" stroke="#2957A4" stroke-width="2.5"/>
<rect x="329.458" y="210.809" width="78.3117" height="9.09714" rx="2" fill="white"/>
<rect x="360.582" y="210.809" width="47.1878" height="9.09714" fill="#ADC4EB" fill-opacity="0.2"/>
<rect x="329.458" y="210.809" width="78.3117" height="9.09714" rx="1" stroke="#2957A4" stroke-width="2.5" stroke-linejoin="bevel"/>
<g opacity="0.07">
<path d="M423.722 306.501C422.958 302.974 422.805 295.012 428.308 291.383C435.188 286.848 442.259 290.25 444.934 293.084" stroke="#2957A4" stroke-width="2" stroke-linecap="round"/>
<path d="M440.82 290.909C442.228 287.042 447.73 279.451 458.479 280.032C471.915 280.757 479.784 295.079 471.147 306.501" stroke="#2957A4" stroke-width="2" stroke-linecap="round"/>
<path d="M421 307H471" stroke="#2957A4" stroke-width="2" stroke-linecap="round"/>
</g>
<path d="M308.359 245.922V293.924" stroke="#2957A4" stroke-width="2.5" stroke-linecap="round"/>
<path d="M308.71 254.393H319.721C320.464 254.393 320.947 255.173 320.617 255.838L309.428 278.361C309.097 279.025 309.581 279.806 310.323 279.806H319.721C320.464 279.806 320.947 280.586 320.617 281.251L314.672 293.218" stroke="#2957A4" stroke-width="2.5" stroke-linecap="round"/>
<path d="M366.925 245.922V293.924" stroke="#2957A4" stroke-width="2" stroke-linecap="round"/>
<path d="M366.574 254.393H355.563C354.82 254.393 354.337 255.173 354.667 255.838L365.856 278.361C366.187 279.025 365.703 279.806 364.961 279.806H355.563C354.82 279.806 354.337 280.586 354.667 281.251L360.612 293.218" stroke="#2957A4" stroke-width="2.5" stroke-linecap="round"/>
<path d="M351.845 293.924H366.925" stroke="#2957A4" stroke-width="2.5" stroke-linecap="round"/>
<rect x="327.647" y="94.1536" width="21.7431" height="61.4134" rx="2" fill="white"/>
<rect x="331.829" y="101.637" width="17.7859" height="4.63892" fill="#B22A2D" fill-opacity="0.4"/>
<rect x="337.817" y="94.1536" width="11.5729" height="61.4134" fill="black" fill-opacity="0.06"/>
<rect x="327.647" y="74.0354" width="21.7431" height="13.7651" rx="2" fill="white"/>
<rect x="337.817" y="74.0354" width="11.5729" height="13.7651" fill="#ADC4EB" fill-opacity="0.2"/>
<rect x="327.647" y="94.1536" width="21.7431" height="61.4134" rx="1" stroke="#2957A4" stroke-width="2.5" stroke-linejoin="bevel"/>
<rect x="322.387" y="161.92" width="32.264" height="132.357" rx="2" fill="white"/>
<path d="M337.817 293.924V162.626H353.949V293.924H337.817Z" fill="#ADC4EB" fill-opacity="0.2"/>
<path d="M346.98 99.6489C330.869 98.9177 327.547 95.8098 327.901 94.3473H346.98V99.6489Z" fill="#ADC4EB" fill-opacity="0.2"/>
<rect x="324.14" y="87.8005" width="28.757" height="6.35312" rx="2" fill="white"/>
<rect x="322.387" y="161.92" width="32.264" height="132.357" rx="1" stroke="#2957A4" stroke-width="2.5" stroke-linejoin="bevel"/>
<rect x="329.853" y="87.7203" width="23.0558" height="6.62702" rx="2" fill="#B22A2D" fill-opacity="0.4"/>
<rect x="324.14" y="87.8006" width="28.757" height="6.35312" rx="2" stroke="#2957A4" stroke-width="2.5"/>
<rect width="15.151" height="6.62702" transform="matrix(1 0 0 -1 337.757 94.3473)" fill="black" fill-opacity="0.06"/>
<rect x="317.827" y="155.567" width="41.382" height="6.35312" rx="2" fill="white"/>
<rect x="289.772" y="293.924" width="64.8786" height="74.1197" rx="2" fill="white"/>
<rect x="294.895" y="293.784" width="59.0702" height="74.2598" rx="2" fill="white"/>
<rect x="327.647" y="293.924" width="27.0035" height="74.1197" fill="#ADC4EB" fill-opacity="0.2"/>
<rect x="305.202" y="333.101" width="22.4445" height="34.9421" fill="#ADC4EB" fill-opacity="0.2"/>
<rect x="321.115" y="333.187" width="6.63033" height="34.8566" rx="2" fill="black" fill-opacity="0.06"/>
<rect x="289.772" y="293.924" width="64.8786" height="74.1197" rx="2" stroke="#2957A4" stroke-width="2.5"/>
<rect x="305.202" y="333.101" width="22.4445" height="34.9421" rx="2" stroke="#2957A4" stroke-width="2.5"/>
<rect x="322.386" y="175.685" width="32.264" height="8.47082" fill="white"/>
<path d="M333.471 175.574H354.568V184.061H325.033V184.061C324.472 179.554 327.988 175.574 332.53 175.574H333.471Z" fill="#B22A2D" fill-opacity="0.4"/>
<path d="M342.031 175.574H354.568V184.061H338.896V184.061C334.977 182.378 335.678 176.622 339.886 175.928L342.031 175.574Z" fill="#B22A2D" fill-opacity="0.4"/>
<path d="M322.386 176.685C322.386 176.133 322.834 175.685 323.386 175.685H353.65C354.202 175.685 354.65 176.133 354.65 176.685V183.156C354.65 183.708 354.202 184.156 353.65 184.156H323.386C322.834 184.156 322.386 183.708 322.386 183.156V176.685Z" stroke="#2957A4" stroke-width="2" stroke-linejoin="bevel"/>
<rect x="322.386" y="254.491" width="32.264" height="8.47082" fill="white"/>
<path d="M333.472 254.38H354.568V262.867H325.033L324.981 262.432C324.406 257.584 328.661 253.549 333.472 254.38V254.38Z" fill="#B22A2D" fill-opacity="0.4"/>
<path d="M342.03 254.38H354.568V262.867H338.896V262.867C336.185 262.867 334.767 259.645 336.599 257.646L338.896 255.138L342.03 254.38Z" fill="#B22A2D" fill-opacity="0.4"/>
<path d="M322.386 256.491C322.386 255.387 323.281 254.491 324.386 254.491H352.65C353.755 254.491 354.65 255.387 354.65 256.491V260.962C354.65 262.067 353.755 262.962 352.65 262.962H324.386C323.281 262.962 322.386 262.067 322.386 260.962V256.491Z" stroke="#2957A4" stroke-width="2"/>
<rect x="317.8" y="155.652" width="41.2889" height="6.28281" fill="white"/>
<path d="M331.986 155.57H358.983V161.864H321.187V161.864C322.685 159.288 325.141 157.409 328.018 156.636L331.986 155.57Z" fill="#B22A2D" fill-opacity="0.4"/>
<path d="M342.939 155.57H358.983V161.864H338.928L342.524 161.469C345.85 161.104 346.181 156.396 342.939 155.57V155.57Z" fill="#B22A2D" fill-opacity="0.4"/>
<path d="M317.8 156.652C317.8 156.099 318.247 155.652 318.8 155.652H358.088C358.641 155.652 359.088 156.099 359.088 156.652V160.935C359.088 161.487 358.641 161.935 358.088 161.935H318.8C318.247 161.935 317.8 161.487 317.8 160.935V156.652Z" stroke="#2957A4" stroke-width="2.5" stroke-linejoin="bevel"/>
<rect x="327.647" y="74.0354" width="21.7431" height="13.7651" rx="1" stroke="#2957A4" stroke-width="2.5" stroke-linejoin="bevel"/>
<path d="M327.647 101.566H349.39V106.507H327.647V101.566Z" stroke="#2957A4" stroke-width="2"/>
<defs>
<clipPath id="clip0_848_3251">
<rect width="192" height="195" fill="white" transform="matrix(-1 0 0 1 283 177)"/>
</clipPath>
</defs>
</svg>
