<svg width="779" height="465" viewBox="0 0 779 465" fill="none" xmlns="http://www.w3.org/2000/svg">
<path d="M2.99973 178.075C15.2828 51.7246 186.715 2.07386 275 0.0746492C443 -3.72972 430.452 139.264 541 112.075C651.107 84.9938 762.753 161.474 778.812 193.69C778.945 193.958 779 194.23 779 194.53V455.901C779 456.988 778.206 457.873 777.12 457.898C740.494 458.741 180.702 471.391 151 457.855C120.292 443.86 44.9998 496.622 45 404.075C45.0002 298.075 -12.3541 336.012 2.99973 178.075Z" fill="#F9F9F9"/>
<g opacity="0.14">
<rect x="668.855" y="300.98" width="49.1447" height="106.867" rx="24.5723" fill="#53C931" stroke="#2957A4" stroke-width="4"/>
<path d="M693.428 371.512L693.428 460.212" stroke="#2957A4" stroke-width="4" stroke-linecap="round"/>
<path d="M693.428 389.68L708.385 357.085" stroke="#2957A4" stroke-width="4" stroke-linecap="round"/>
<path d="M700.372 372.581L685.949 349.605" stroke="#2957A4" stroke-width="4" stroke-linecap="round"/>
<path d="M691.291 356.017L696.099 342.124" stroke="#2957A4" stroke-width="4" stroke-linecap="round"/>
<path d="M693.962 385.94L678.471 369.375" stroke="#2957A4" stroke-width="4" stroke-linecap="round"/>
</g>
<path d="M146.979 340.181L64.668 455.492C63.723 456.816 64.6693 458.654 66.2958 458.654H358.148C359.802 458.654 360.741 456.761 359.741 455.444L240.982 299.086C240.184 298.036 238.605 298.032 237.802 299.078L176.569 378.865L150.26 340.218C149.477 339.067 147.787 339.048 146.979 340.181Z" fill="white"/>
<path d="M204.493 419.885L176.569 378.865M176.569 378.865L150.26 340.218C149.477 339.067 147.787 339.048 146.979 340.181L64.668 455.492C63.723 456.816 64.6693 458.654 66.2958 458.654H358.148C359.802 458.654 360.741 456.761 359.741 455.444L240.982 299.086C240.184 298.036 238.605 298.032 237.802 299.078L176.569 378.865Z" stroke="#2957A4" stroke-width="3"/>
<path d="M146.226 385.836L128.786 368.736C128.286 368.245 128.232 367.457 128.662 366.903C129.182 366.232 130.179 366.185 130.76 366.804L146.271 383.328C146.932 384.033 148.004 384.163 148.815 383.638L160.526 376.059C161.117 375.677 161.864 375.633 162.495 375.943L168.118 378.708C168.877 379.081 169.787 378.937 170.394 378.348L172.972 375.845C173.196 375.628 173.558 375.645 173.76 375.883L173.916 376.067C174.153 376.345 173.955 376.773 173.589 376.773C173.461 376.773 173.339 376.83 173.258 376.93L171.194 379.45C170.612 380.16 169.621 380.383 168.791 379.991L163.043 377.27C162.393 376.963 161.628 377.028 161.039 377.441L148.775 386.045C147.986 386.598 146.914 386.51 146.226 385.836Z" fill="#ADC4EB"/>
<path d="M225.018 335.801L220.096 332.652C219.123 332.029 218.044 333.278 218.802 334.15L223.705 339.79C224 340.129 224.484 340.23 224.889 340.038L232.833 336.261C233.091 336.138 233.388 336.131 233.651 336.242L257.739 346.387C258.177 346.572 258.685 346.423 258.953 346.03L264.753 337.544C264.932 337.282 265.274 337.184 265.565 337.313C266.302 337.64 266.869 336.611 266.2 336.162L264.344 334.915C263.949 334.649 263.412 334.758 263.151 335.157L257.929 343.133C257.662 343.541 257.138 343.697 256.691 343.501L233.606 333.366C233.37 333.263 233.102 333.254 232.86 333.343L225.901 335.897C225.608 336.005 225.281 335.969 225.018 335.801Z" fill="#ADC4EB"/>
<path d="M223.207 339.445L215.861 330.809C215.032 329.834 213.513 329.878 212.742 330.899L178.165 376.667C177.693 377.292 176.9 377.584 176.135 377.414L175.13 377.19C174.488 377.047 173.817 377.228 173.335 377.675L170.982 379.857C170.387 380.409 169.518 380.546 168.781 380.205L162.849 377.454C162.192 377.15 161.423 377.224 160.836 377.648L148.772 386.365C147.986 386.932 146.906 386.855 146.209 386.18L128.556 369.087C127.675 368.235 126.242 368.368 125.533 369.368L64.2374 455.843C63.2986 457.168 64.2457 459 65.8691 459H358.958C360.614 459 361.552 457.103 360.548 455.787L272.902 340.934C272.742 340.724 272.541 340.547 272.312 340.415L266.52 337.074C265.59 336.539 264.404 336.831 263.83 337.738L259.192 345.068C258.67 345.894 257.626 346.222 256.725 345.842L234.475 336.464C233.949 336.242 233.353 336.256 232.838 336.501L225.591 339.954C224.773 340.344 223.795 340.135 223.207 339.445Z" fill="#DEE8F7" stroke="#2957A4" stroke-width="3"/>
<path d="M197.542 407.975L178.512 380.391C178.026 379.686 178.042 378.749 178.554 378.062L185.365 368.908C186.331 367.611 188.357 367.937 188.867 369.471L201.086 406.208C201.816 408.404 198.856 409.879 197.542 407.975Z" fill="#ADC4EB"/>
<path d="M67.749 455.727L127.703 373.705L85.4066 439.568L75.9618 448.568L81.3002 445.296L75.9618 451.841L138.379 454.705L67.749 455.727Z" fill="#ADC4EB"/>
<path opacity="0.14" d="M758.04 441.698C766.581 443.592 777.921 452.071 784.585 457.781C785.983 458.979 785.067 461.164 783.227 461.085L733.913 458.945C732.843 458.898 732 458.017 732 456.947V433.21C732 432.41 732.473 431.656 733.256 431.489C739.629 430.125 745.588 438.936 758.04 441.698Z" fill="#53C931" stroke="#2957A4" stroke-width="4" stroke-linecap="round"/>
<path d="M302.036 456.734L304.478 319.754C304.491 318.987 304.942 318.296 305.638 317.974L440.272 255.75L466.367 259.699C467.344 259.847 468.067 260.687 468.067 261.676V445.801C468.067 446.607 467.583 447.334 466.84 447.645L440.272 458.769H304.036C302.917 458.769 302.016 457.852 302.036 456.734Z" fill="white"/>
<path d="M440.272 458.769H304.036C302.917 458.769 302.016 457.852 302.036 456.734L304.478 319.754C304.491 318.987 304.942 318.296 305.638 317.974L440.272 255.75M440.272 458.769V255.75M440.272 458.769L466.84 447.645C467.583 447.334 468.067 446.607 468.067 445.801V261.676C468.067 260.687 467.344 259.847 466.366 259.699L440.272 255.75" stroke="#2957A4" stroke-width="3"/>
<path d="M440.553 258.125C440.553 256.885 441.671 255.943 442.894 256.155L466.408 260.22C467.367 260.385 468.067 261.217 468.067 262.19V445.786C468.067 446.566 467.613 447.275 466.905 447.602L443.391 458.442C442.065 459.053 440.553 458.085 440.553 456.626V258.125Z" fill="white" stroke="#2957A4" stroke-width="3"/>
<path d="M755 456.769V320.86C755 320.08 754.546 319.372 753.838 319.045L616.728 255.75L590.639 259.698C589.659 259.846 588.935 260.69 588.938 261.682L589.496 443.8C589.499 444.539 589.908 445.216 590.56 445.562L615.5 458.769H753C754.105 458.769 755 457.874 755 456.769Z" fill="white"/>
<path d="M615.5 458.769H753C754.105 458.769 755 457.874 755 456.769V320.86C755 320.08 754.546 319.372 753.838 319.045L616.728 255.75M615.5 458.769L616.728 255.75M615.5 458.769L590.56 445.562C589.908 445.216 589.499 444.539 589.496 443.8L588.938 261.682C588.935 260.69 589.659 259.846 590.639 259.698L616.728 255.75" stroke="#2957A4" stroke-width="3"/>
<path d="M615.464 257.074C615.464 255.857 614.387 254.922 613.183 255.094L590.651 258.296C589.665 258.436 588.933 259.28 588.933 260.276V444.157C588.933 444.87 589.312 445.528 589.928 445.886L612.459 458.984C613.792 459.759 615.464 458.797 615.464 457.255V257.074Z" fill="white" stroke="#2957A4" stroke-width="3"/>
<path d="M302 312.985V317.069C302 318.528 303.512 319.496 304.837 318.885L439.789 256.721C440.14 256.559 440.531 256.502 440.914 256.558L465.35 260.121C466.556 260.297 467.638 259.362 467.638 258.142V249.803C467.638 248.783 466.87 247.926 465.856 247.815L440.897 245.085C440.525 245.045 440.148 245.109 439.811 245.272L303.131 311.184C302.44 311.517 302 312.217 302 312.985Z" fill="white" stroke="#2957A4" stroke-width="3"/>
<path d="M754.574 311.547V315.589C754.574 317.045 753.067 318.013 751.743 317.408L616.425 255.587C616.076 255.428 615.688 255.372 615.308 255.427L590.796 258.972C589.59 259.147 588.509 258.211 588.509 256.993V248.723C588.509 247.702 589.278 246.845 590.294 246.735L615.325 244.02C615.695 243.979 616.068 244.043 616.403 244.204L753.437 309.743C754.131 310.075 754.574 310.777 754.574 311.547Z" fill="white" stroke="#2957A4" stroke-width="3"/>
<path d="M595.286 218.672L587.96 238.789V443.894C587.96 444.641 587.545 445.325 586.882 445.669L560.202 459.525C559.917 459.673 559.601 459.75 559.28 459.75H498.063C497.807 459.75 497.554 459.701 497.317 459.606L468.597 448.066C467.84 447.762 467.343 447.027 467.343 446.21V238.789L460.683 218.67C460.401 217.818 460.72 216.883 461.464 216.382L497.169 192.341C497.5 192.119 497.889 192 498.286 192H559.138C559.549 192 559.949 192.126 560.285 192.362L594.554 216.349C595.295 216.868 595.596 217.821 595.286 218.672Z" fill="white"/>
<path d="M587.96 238.789L590.798 228.657C591.023 227.854 590.726 226.995 590.052 226.503L560.296 204.77C559.953 204.52 559.54 204.385 559.116 204.385H498.28C497.886 204.385 497.501 204.502 497.173 204.72L466.927 224.815C466.306 225.227 465.966 225.952 466.045 226.694L467.343 238.789M587.96 238.789L595.286 218.672C595.596 217.821 595.295 216.868 594.554 216.349L560.285 192.362C559.949 192.126 559.549 192 559.138 192H498.286C497.889 192 497.5 192.119 497.169 192.341L461.464 216.382C460.72 216.883 460.401 217.818 460.683 218.67L467.343 238.789M587.96 238.789V443.894C587.96 444.641 587.545 445.325 586.882 445.669L560.202 459.525C559.917 459.673 559.601 459.75 559.28 459.75H498.063C497.807 459.75 497.554 459.701 497.317 459.606L468.597 448.066C467.84 447.762 467.343 447.027 467.343 446.21V238.789" stroke="#2957A4" stroke-width="3"/>
<path d="M487.57 335.641C487.57 334.454 486.541 333.528 485.361 333.652L476.996 334.533C475.978 334.64 475.206 335.499 475.206 336.522V396.178C475.206 396.987 475.694 397.717 476.442 398.026L484.806 401.484C486.123 402.028 487.57 401.06 487.57 399.635V335.641Z" fill="#DEE8F7"/>
<path d="M475.018 356.263L482.262 347.449V353.411L475.018 361.929V356.263Z" fill="#ADC4EB"/>
<path d="M476.722 387.482L486.737 379.39L482.689 392.593L476.722 397.704V387.482Z" fill="#ADC4EB"/>
<path d="M476.509 335.098H486.524V338.931L476.509 349.791V335.098Z" fill="#ADC4EB"/>
<path d="M489.536 335.641C489.536 334.454 488.507 333.528 487.326 333.652L478.962 334.533C477.944 334.64 477.171 335.499 477.171 336.522V396.178C477.171 396.987 477.659 397.717 478.407 398.026L486.772 401.484C488.088 402.028 489.536 401.06 489.536 399.635V335.641Z" stroke="#2957A4" stroke-width="3"/>
<path d="M489.536 412.798C489.536 411.989 489.048 411.259 488.3 410.95L479.935 407.493C478.619 406.949 477.171 407.916 477.171 409.341V441.713C477.171 442.591 477.744 443.366 478.582 443.624L486.947 446.202C488.233 446.599 489.536 445.637 489.536 444.291V412.798Z" fill="#DEE8F7" stroke="#2957A4" stroke-width="4"/>
<path d="M498.529 232.212V459.75" stroke="#2957A4" stroke-width="3"/>
<path d="M558.471 232.212V459.75" stroke="#2957A4" stroke-width="3"/>
<path d="M541.742 297.833H513.766C512.661 297.833 511.766 296.938 511.766 295.833V253.451C512.019 250.126 515.694 240.791 528.18 241.19C540.666 241.589 543.742 250.459 543.742 253.451V295.833C543.742 296.938 542.847 297.833 541.742 297.833Z" fill="#DEE8F7"/>
<path d="M543.202 290.806L512.519 260.167V253.754L518.059 245.236L543.202 253.754V290.806Z" fill="#ADC4EB"/>
<path d="M519.764 243.958L543.202 268.66V260.083L519.764 243.958Z" fill="#DEE8F7"/>
<path d="M530.418 298.046L512.519 279.733V298.046H530.418Z" fill="#ADC4EB"/>
<rect x="511.766" y="309.971" width="31.9765" height="17.0355" rx="2" fill="#DEE8F7"/>
<path d="M528.074 310.61H544.054V316.572L528.074 310.61Z" fill="#ADC4EB"/>
<rect x="511.766" y="309.971" width="31.9765" height="17.0355" rx="2" stroke="#2957A4" stroke-width="3"/>
<path d="M567.191 337.771C567.191 336.583 568.22 335.657 569.401 335.782L577.765 336.663C578.783 336.77 579.556 337.628 579.556 338.652V398.307C579.556 399.117 579.068 399.847 578.32 400.156L569.955 403.613C568.639 404.157 567.191 403.189 567.191 401.765V337.771Z" fill="#DEE8F7"/>
<path d="M578.36 338.079H568.345V341.912L578.36 352.772V338.079Z" fill="#ADC4EB"/>
<path d="M578.147 390.463L568.132 382.372L574.311 394.296L578.147 400.685V390.463Z" fill="#ADC4EB"/>
<path d="M579.851 359.244L572.607 350.43V356.392L579.851 364.91V359.244Z" fill="#ADC4EB"/>
<path d="M567.192 337.771C567.192 336.583 568.22 335.657 569.401 335.782L577.765 336.663C578.783 336.77 579.556 337.628 579.556 338.652V398.307C579.556 399.117 579.068 399.847 578.32 400.156L569.956 403.613C568.639 404.157 567.192 403.189 567.192 401.765V337.771Z" stroke="#2957A4" stroke-width="3"/>
<rect x="511.766" y="333.82" width="31.9765" height="73.0397" rx="2" fill="#DEE8F7"/>
<path d="M451.362 329.487L443.616 334.276C442.284 335.1 440.565 334.141 440.565 332.575V316.94C440.565 316.199 440.974 315.519 441.628 315.173L451.406 309.991C451.694 309.838 452.016 309.758 452.343 309.758H465.638C466.743 309.758 467.638 310.653 467.638 311.758V327.188C467.638 328.292 466.743 329.188 465.638 329.188H452.414C452.042 329.188 451.678 329.291 451.362 329.487Z" fill="white" stroke="#2957A4" stroke-width="3"/>
<path d="M605.21 329.539L612.963 334.295C614.296 335.112 616.009 334.153 616.009 332.59V317.109C616.009 316.366 615.597 315.685 614.94 315.339L605.165 310.201C604.878 310.05 604.559 309.971 604.235 309.971H590.936C589.831 309.971 588.936 310.866 588.936 311.971V327.244C588.936 328.349 589.831 329.244 590.936 329.244H604.164C604.533 329.244 604.895 329.346 605.21 329.539Z" fill="white" stroke="#2957A4" stroke-width="4"/>
<path d="M465.95 247.539L498.331 232.07C498.6 231.941 498.894 231.874 499.193 231.874H558.828C559.157 231.874 559.482 231.956 559.772 232.112L588.556 247.539" stroke="#2957A4" stroke-width="3"/>
<path d="M705.756 310.405C705.756 309.666 705.349 308.987 704.696 308.64L699.743 306.001C698.411 305.291 696.803 306.256 696.803 307.766V327.716C696.803 328.508 697.271 329.226 697.996 329.546L702.949 331.731C704.271 332.314 705.756 331.346 705.756 329.901V321.086V310.405Z" fill="#DEE8F7" stroke="#2957A4" stroke-width="3"/>
<path d="M705.756 348.783C705.756 347.975 705.27 347.247 704.525 346.936L699.571 344.875C698.254 344.326 696.803 345.294 696.803 346.721V368.572C696.803 369.437 697.358 370.203 698.179 370.473L703.132 372.099C704.426 372.524 705.756 371.56 705.756 370.199V348.783Z" fill="#DEE8F7" stroke="#2957A4" stroke-width="3"/>
<path d="M705.756 383.757C705.756 382.872 705.174 382.092 704.326 381.84L699.373 380.367C698.09 379.986 696.803 380.947 696.803 382.284V405.264C696.803 406.245 697.515 407.082 698.483 407.239L703.437 408.04C704.653 408.237 705.756 407.298 705.756 406.066V383.757Z" fill="#DEE8F7" stroke="#2957A4" stroke-width="3"/>
<path d="M686.783 302.759C686.783 302.019 686.375 301.34 685.723 300.993L679.916 297.905C678.584 297.197 676.977 298.162 676.977 299.671V320.294C676.977 321.056 677.41 321.752 678.094 322.089L683.9 324.948C685.229 325.602 686.783 324.635 686.783 323.153V302.759Z" fill="#DEE8F7" stroke="#2957A4" stroke-width="3"/>
<path d="M686.783 341.121C686.783 340.311 686.295 339.581 685.546 339.272L679.74 336.877C678.424 336.334 676.977 337.301 676.977 338.726V362.926C676.977 363.792 677.535 364.559 678.358 364.828L684.164 366.719C685.457 367.14 686.783 366.176 686.783 364.817V341.121Z" fill="#DEE8F7" stroke="#2957A4" stroke-width="3"/>
<path d="M686.783 378.65C686.783 377.744 686.175 376.952 685.3 376.718L679.494 375.166C678.224 374.826 676.977 375.783 676.977 377.098V401.35C676.977 402.323 677.678 403.155 678.636 403.321L684.442 404.326C685.665 404.537 686.783 403.596 686.783 402.355V378.65Z" fill="#DEE8F7" stroke="#2957A4" stroke-width="3"/>
<path d="M666.318 293.713C666.318 292.967 665.903 292.283 665.241 291.939L659.435 288.919C658.104 288.226 656.512 289.193 656.512 290.693V312.237C656.512 313.016 656.964 313.724 657.671 314.052L663.477 316.745C664.802 317.359 666.318 316.392 666.318 314.93V293.713Z" fill="#DEE8F7" stroke="#2957A4" stroke-width="3"/>
<path d="M666.532 333.97C666.532 333.169 666.054 332.445 665.317 332.131L659.084 329.472C657.765 328.909 656.299 329.877 656.299 331.312V357.506C656.299 358.367 656.85 359.131 657.667 359.403L663.9 361.479C665.195 361.91 666.532 360.946 666.532 359.581V333.97Z" fill="#DEE8F7" stroke="#2957A4" stroke-width="3"/>
<path d="M667.171 373.288C667.171 372.392 666.576 371.606 665.714 371.363L658.202 369.247C656.926 368.887 655.66 369.846 655.66 371.172V397.687C655.66 398.647 656.342 399.472 657.285 399.651L664.797 401.084C666.029 401.319 667.171 400.374 667.171 399.119V373.288Z" fill="#DEE8F7" stroke="#2957A4" stroke-width="3"/>
<path d="M643.295 284.003C643.295 283.254 642.877 282.568 642.211 282.225L634.913 278.466C633.582 277.781 631.997 278.747 631.997 280.244V304.537C631.997 305.304 632.436 306.004 633.127 306.338L640.426 309.863C641.754 310.504 643.295 309.536 643.295 308.062V284.003Z" fill="#DEE8F7" stroke="#2957A4" stroke-width="3"/>
<path d="M643.722 325.131C643.722 324.308 643.218 323.569 642.451 323.269L635.153 320.41C633.841 319.896 632.423 320.863 632.423 322.272V349.233C632.423 350.12 633.008 350.902 633.859 351.152L641.158 353.297C642.439 353.673 643.722 352.713 643.722 351.378V325.131Z" fill="#DEE8F7" stroke="#2957A4" stroke-width="3"/>
<path d="M726.008 320.236C726.008 319.477 725.578 318.783 724.897 318.445L720.583 316.303C719.254 315.643 717.694 316.61 717.694 318.094V335.138C717.694 335.922 718.152 336.633 718.865 336.958L723.179 338.921C724.504 339.524 726.008 338.556 726.008 337.101V320.236Z" fill="#DEE8F7" stroke="#2957A4" stroke-width="3"/>
<path d="M725.795 356.113C725.795 355.313 725.319 354.591 724.584 354.275L719.418 352.055C718.098 351.488 716.628 352.456 716.628 353.892V374.318C716.628 375.184 717.186 375.952 718.01 376.22L723.176 377.9C724.468 378.32 725.795 377.357 725.795 375.998V356.113Z" fill="#DEE8F7" stroke="#2957A4" stroke-width="3"/>
<path d="M725.795 389.171C725.795 388.288 725.216 387.51 724.371 387.256L719.204 385.702C717.921 385.316 716.628 386.277 716.628 387.617V408.271C716.628 409.244 717.328 410.076 718.286 410.242L723.453 411.138C724.676 411.351 725.795 410.409 725.795 409.168V389.171Z" fill="#DEE8F7" stroke="#2957A4" stroke-width="3"/>
<path d="M742.209 327.41C742.209 326.664 741.794 325.98 741.133 325.636L738.098 324.056C736.766 323.363 735.174 324.329 735.174 325.83V341.717C735.174 342.505 735.637 343.219 736.355 343.542L739.39 344.905C740.713 345.499 742.209 344.531 742.209 343.08V327.41Z" fill="#DEE8F7" stroke="#2957A4" stroke-width="3"/>
<path d="M742.209 362.162C742.209 361.351 741.719 360.62 740.969 360.312L737.295 358.803C735.978 358.263 734.535 359.231 734.535 360.653V379.952C734.535 380.823 735.098 381.593 735.927 381.858L739.601 383.03C740.891 383.442 742.209 382.479 742.209 381.125V362.162Z" fill="#DEE8F7" stroke="#2957A4" stroke-width="3"/>
<path d="M742.209 393.759C742.209 392.857 741.605 392.066 740.734 391.829L737.06 390.83C735.788 390.485 734.535 391.442 734.535 392.76V411.79C734.535 412.757 735.228 413.586 736.18 413.758L739.854 414.421C741.081 414.642 742.209 413.699 742.209 412.453V393.759Z" fill="#DEE8F7" stroke="#2957A4" stroke-width="3"/>
<path d="M643.295 367.104C643.295 366.182 642.665 365.379 641.769 365.161L634.47 363.383C633.211 363.076 631.997 364.03 631.997 365.326V393.546C631.997 394.512 632.687 395.34 633.638 395.513L640.936 396.847C642.164 397.071 643.295 396.128 643.295 394.879V367.104Z" fill="#DEE8F7" stroke="#2957A4" stroke-width="3"/>
<path d="M705.969 420.432C705.969 419.429 705.225 418.58 704.23 418.449L698.531 417.699C697.333 417.541 696.27 418.473 696.27 419.681V438.783C696.27 439.888 697.165 440.783 698.27 440.783H703.969C705.074 440.783 705.969 439.888 705.969 438.783V420.432Z" fill="#DEE8F7" stroke="#2957A4" stroke-width="3"/>
<path d="M686.783 418.161C686.783 417.173 686.061 416.333 685.084 416.184L679.278 415.302C678.067 415.118 676.977 416.055 676.977 417.279V439.037C676.977 440.142 677.873 441.037 678.977 441.037H684.783C685.888 441.037 686.783 440.142 686.783 439.037V418.161Z" fill="#DEE8F7" stroke="#2957A4" stroke-width="3"/>
<path d="M666.958 415.726C666.958 414.732 666.227 413.888 665.243 413.747L658.158 412.726C656.952 412.552 655.873 413.487 655.873 414.705V439.144C655.873 440.249 656.768 441.144 657.873 441.144H664.958C666.063 441.144 666.958 440.249 666.958 439.144V415.726Z" fill="#DEE8F7" stroke="#2957A4" stroke-width="3"/>
<path d="M644.574 412.926C644.574 411.906 643.807 411.05 642.794 410.938L633.151 409.873C631.966 409.743 630.931 410.67 630.931 411.861V438.718C630.931 439.823 631.827 440.718 632.931 440.718H642.574C643.679 440.718 644.574 439.823 644.574 438.718V412.926Z" fill="#DEE8F7" stroke="#2957A4" stroke-width="3"/>
<path d="M725.795 422.376C725.795 421.361 725.034 420.507 724.025 420.389L718.859 419.789C717.671 419.651 716.628 420.58 716.628 421.776V438.931C716.628 440.036 717.524 440.931 718.628 440.931H723.795C724.899 440.931 725.795 440.036 725.795 438.931V422.376Z" fill="#DEE8F7" stroke="#2957A4" stroke-width="3"/>
<path d="M743.062 425.211C743.062 424.213 742.326 423.367 741.337 423.23L737.662 422.721C736.46 422.554 735.388 423.488 735.388 424.702V439.329C735.388 440.444 736.3 441.344 737.415 441.329L741.09 441.278C742.183 441.263 743.062 440.372 743.062 439.278V425.211Z" fill="#DEE8F7" stroke="#2957A4" stroke-width="3"/>
<path d="M542.776 341.912L527.009 333.82H542.776V341.912Z" fill="#ADC4EB"/>
<path d="M526.582 345.319L541.856 352.179V345.319L512.945 331.691L512.945 345.319H526.582Z" fill="#ADC4EB"/>
<path d="M524.452 400.819H541.924V382.683L512.747 373.428L512.747 406.647L524.452 400.819Z" fill="#ADC4EB"/>
<rect x="511.766" y="333.82" width="31.9765" height="73.0397" rx="2" stroke="#2957A4" stroke-width="3"/>
<path d="M570.344 300.356L575.297 301.783C576.576 302.151 577.851 301.191 577.851 299.861V260.754C576.358 245.449 568.897 249.708 568.897 257.66V298.434C568.897 299.326 569.487 300.11 570.344 300.356Z" fill="#DEE8F7"/>
<path d="M579.851 276.965L567.067 256.077V254.018C573.317 247.277 578.194 252.582 579.851 256.077V276.965Z" fill="#ADC4EB"/>
<path d="M578.573 266.956L569.198 253.115L570.689 251.411L578.573 261.845V266.956Z" fill="#DEE8F7"/>
<path d="M568.669 300.461L577.454 302.244C578.693 302.495 579.852 301.548 579.852 300.284V260.689C577.721 245.282 567.067 249.569 567.067 257.574V298.501C567.067 299.452 567.737 300.271 568.669 300.461Z" stroke="#2957A4" stroke-width="3"/>
<path d="M486.491 300.356L481.538 301.783C480.259 302.151 478.984 301.191 478.984 299.861V260.754C480.477 245.449 487.938 249.708 487.938 257.66V298.434C487.938 299.326 487.348 300.11 486.491 300.356Z" fill="#DEE8F7"/>
<path d="M489.768 276.965L476.983 256.077V254.018C483.234 247.277 488.111 252.582 489.768 256.077V276.965Z" fill="#ADC4EB"/>
<path d="M488.49 266.956L479.114 253.115L480.606 251.411L488.49 261.846V266.956Z" fill="#DEE8F7"/>
<path d="M488.166 300.461L479.381 302.244C478.142 302.496 476.983 301.548 476.983 300.284V260.689C479.114 245.282 489.768 249.569 489.768 257.574V298.501C489.768 299.452 489.098 300.272 488.166 300.461Z" stroke="#2957A4" stroke-width="3"/>
<path d="M567.067 314.645C567.067 313.349 568.281 312.396 569.54 312.702L578.224 314.816C579.12 315.034 579.751 315.837 579.751 316.759V326.2C579.751 327.45 578.617 328.394 577.388 328.167L568.704 326.563C567.755 326.388 567.067 325.561 567.067 324.596V314.645Z" fill="#DEE8F7"/>
<path d="M579.425 325.19L567.919 320.192V326.975L579.425 328.284V325.19Z" fill="#ADC4EB"/>
<path d="M567.067 314.645C567.067 313.349 568.281 312.396 569.54 312.702L578.224 314.816C579.12 315.034 579.751 315.837 579.751 316.759V326.2C579.751 327.45 578.617 328.394 577.388 328.167L568.704 326.563C567.755 326.388 567.067 325.561 567.067 324.596V314.645Z" stroke="#2957A4" stroke-width="3"/>
<path d="M489.667 312.516C489.667 311.22 488.453 310.266 487.194 310.573L478.51 312.687C477.614 312.905 476.983 313.708 476.983 314.63V324.071C476.983 325.321 478.117 326.265 479.346 326.038L488.03 324.434C488.979 324.259 489.667 323.432 489.667 322.467V312.516Z" fill="#DEE8F7"/>
<path d="M488.815 323.061H477.309V324.846L488.815 326.154V323.061Z" fill="#ADC4EB"/>
<path d="M489.667 312.516C489.667 311.22 488.453 310.266 487.194 310.573L478.51 312.687C477.614 312.905 476.983 313.708 476.983 314.63V324.071C476.983 325.321 478.117 326.265 479.346 326.038L488.03 324.434C488.979 324.259 489.667 323.432 489.667 322.467V312.516Z" stroke="#2957A4" stroke-width="3"/>
<path d="M541.742 297.833H513.766C512.661 297.833 511.766 296.938 511.766 295.833V253.451C512.019 250.126 515.694 240.791 528.18 241.19C540.666 241.589 543.742 250.459 543.742 253.451V295.833C543.742 296.938 542.847 297.833 541.742 297.833Z" stroke="#2957A4" stroke-width="3"/>
<path d="M521 192L521 168" stroke="#2957A4" stroke-width="3"/>
<path d="M349.93 311.359C349.93 310.622 350.335 309.945 350.984 309.597L355.847 306.986C357.179 306.271 358.793 307.236 358.793 308.748V328.631C358.793 329.422 358.327 330.138 357.605 330.459L352.742 332.62C351.419 333.208 349.93 332.24 349.93 330.793V322.017V311.359Z" fill="#DEE8F7" stroke="#2957A4" stroke-width="3"/>
<path d="M349.93 349.646C349.93 348.84 350.413 348.113 351.156 347.802L356.019 345.762C357.337 345.209 358.793 346.177 358.793 347.606V369.389C358.793 370.252 358.24 371.017 357.421 371.288L352.558 372.897C351.264 373.325 349.93 372.362 349.93 370.998V349.646Z" fill="#DEE8F7" stroke="#2957A4" stroke-width="3"/>
<path d="M349.93 384.538C349.93 383.654 350.509 382.876 351.356 382.622L356.219 381.165C357.502 380.781 358.793 381.741 358.793 383.081V405.992C358.793 406.972 358.082 407.808 357.115 407.965L352.252 408.759C351.035 408.957 349.93 408.018 349.93 406.785V384.538Z" fill="#DEE8F7" stroke="#2957A4" stroke-width="3"/>
<path d="M368.711 303.731C368.711 302.994 369.116 302.317 369.766 301.969L375.473 298.91C376.806 298.196 378.418 299.161 378.418 300.673V321.228C378.418 321.988 377.988 322.682 377.307 323.019L371.6 325.851C370.271 326.511 368.711 325.544 368.711 324.06V303.731Z" fill="#DEE8F7" stroke="#2957A4" stroke-width="3"/>
<path d="M368.711 342.003C368.711 341.195 369.197 340.466 369.943 340.156L375.65 337.783C376.967 337.235 378.418 338.203 378.418 339.63V363.756C378.418 364.62 377.863 365.387 377.042 365.656L371.335 367.53C370.041 367.954 368.711 366.991 368.711 365.63V342.003Z" fill="#DEE8F7" stroke="#2957A4" stroke-width="3"/>
<path d="M368.711 379.443C368.711 378.539 369.318 377.747 370.191 377.512L375.898 375.974C377.169 375.632 378.418 376.589 378.418 377.906V402.087C378.418 403.059 377.719 403.89 376.762 404.057L371.054 405.052C369.831 405.266 368.711 404.324 368.711 403.082V379.443Z" fill="#DEE8F7" stroke="#2957A4" stroke-width="3"/>
<path d="M388.969 294.707C388.969 293.963 389.382 293.281 390.041 292.936L395.748 289.944C397.08 289.246 398.677 290.212 398.677 291.716V313.19C398.677 313.966 398.227 314.673 397.524 315.002L391.816 317.669C390.49 318.289 388.969 317.321 388.969 315.857V294.707Z" fill="#DEE8F7" stroke="#2957A4" stroke-width="3"/>
<path d="M388.759 334.869C388.759 334.07 389.234 333.347 389.969 333.032L396.098 330.396C397.418 329.829 398.888 330.797 398.888 332.234V358.349C398.888 359.208 398.339 359.972 397.524 360.245L391.395 362.302C390.099 362.737 388.759 361.773 388.759 360.406V334.869Z" fill="#DEE8F7" stroke="#2957A4" stroke-width="3"/>
<path d="M388.125 374.094C388.125 373.2 388.719 372.414 389.579 372.17L396.975 370.07C398.252 369.708 399.521 370.667 399.521 371.994V398.433C399.521 399.392 398.84 400.216 397.898 400.397L390.503 401.818C389.27 402.055 388.125 401.11 388.125 399.854V374.094Z" fill="#DEE8F7" stroke="#2957A4" stroke-width="3"/>
<path d="M411.76 285.02C411.76 284.274 412.176 283.589 412.839 283.245L420.024 279.516C421.355 278.825 422.945 279.791 422.945 281.291V305.508C422.945 306.273 422.508 306.971 421.82 307.306L414.636 310.803C413.307 311.449 411.76 310.482 411.76 309.004V285.02Z" fill="#DEE8F7" stroke="#2957A4" stroke-width="3"/>
<path d="M411.338 326.051C411.338 325.23 411.84 324.493 412.604 324.191L419.788 321.354C421.101 320.836 422.523 321.803 422.523 323.215V350.096C422.523 350.982 421.94 351.762 421.091 352.014L413.906 354.141C412.625 354.521 411.338 353.56 411.338 352.223V326.051Z" fill="#DEE8F7" stroke="#2957A4" stroke-width="3"/>
<path d="M329.882 321.167C329.882 320.41 330.31 319.717 330.987 319.379L335.217 317.262C336.547 316.597 338.112 317.564 338.112 319.051V336.035C338.112 336.817 337.657 337.527 336.946 337.853L332.716 339.794C331.391 340.401 329.882 339.433 329.882 337.976V321.167Z" fill="#DEE8F7" stroke="#2957A4" stroke-width="3"/>
<path d="M330.093 356.958C330.093 356.161 330.567 355.44 331.298 355.123L336.373 352.925C337.693 352.353 339.167 353.322 339.167 354.761V375.121C339.167 375.985 338.612 376.752 337.79 377.021L332.716 378.684C331.423 379.108 330.093 378.145 330.093 376.784V356.958Z" fill="#DEE8F7" stroke="#2957A4" stroke-width="3"/>
<path d="M330.093 389.939C330.093 389.058 330.67 388.281 331.513 388.025L336.587 386.487C337.872 386.098 339.167 387.059 339.167 388.401V408.992C339.167 409.963 338.469 410.794 337.512 410.962L332.438 411.849C331.214 412.063 330.093 411.121 330.093 409.879V389.939Z" fill="#DEE8F7" stroke="#2957A4" stroke-width="3"/>
<path d="M313.844 328.323C313.844 327.58 314.256 326.898 314.915 326.552L317.879 324.998C319.211 324.299 320.808 325.265 320.808 326.769V342.599C320.808 343.385 320.348 344.097 319.633 344.421L316.669 345.763C315.345 346.362 313.844 345.394 313.844 343.941V328.323Z" fill="#DEE8F7" stroke="#2957A4" stroke-width="3"/>
<path d="M313.844 362.993C313.844 362.184 314.332 361.455 315.079 361.145L318.676 359.657C319.993 359.112 321.441 360.08 321.441 361.505V380.742C321.441 381.61 320.88 382.38 320.053 382.646L316.456 383.802C315.165 384.218 313.844 383.255 313.844 381.898V362.993Z" fill="#DEE8F7" stroke="#2957A4" stroke-width="4"/>
<path d="M313.844 394.516C313.844 393.615 314.446 392.826 315.316 392.588L318.912 391.602C320.185 391.253 321.441 392.211 321.441 393.531V412.502C321.441 413.468 320.75 414.297 319.799 414.469L316.202 415.123C314.974 415.346 313.844 414.403 313.844 413.155V394.516Z" fill="#DEE8F7" stroke="#2957A4" stroke-width="3"/>
<path d="M411.76 367.925C411.76 367.004 412.389 366.202 413.284 365.983L420.468 364.219C421.728 363.91 422.945 364.864 422.945 366.162V394.302C422.945 395.266 422.256 396.094 421.307 396.268L414.123 397.591C412.894 397.817 411.76 396.874 411.76 395.624V367.925Z" fill="#DEE8F7" stroke="#2957A4" stroke-width="3"/>
<path d="M349.719 421.128C349.719 420.125 350.461 419.277 351.456 419.145L357.057 418.402C358.256 418.242 359.32 419.175 359.32 420.384V439.428C359.32 440.532 358.425 441.428 357.32 441.428H351.719C350.614 441.428 349.719 440.532 349.719 439.428V421.128Z" fill="#DEE8F7" stroke="#2957A4" stroke-width="3"/>
<path d="M368.711 418.862C368.711 417.874 369.432 417.035 370.408 416.885L376.115 416.011C377.326 415.825 378.418 416.762 378.418 417.988V439.681C378.418 440.786 377.523 441.681 376.418 441.681H370.711C369.606 441.681 368.711 440.786 368.711 439.681V418.862Z" fill="#DEE8F7" stroke="#2957A4" stroke-width="3"/>
<path d="M388.336 416.433C388.336 415.439 389.066 414.596 390.049 414.453L397.022 413.441C398.229 413.266 399.31 414.201 399.31 415.42V439.788C399.31 440.892 398.414 441.788 397.31 441.788H390.336C389.232 441.788 388.336 440.892 388.336 439.788V416.433Z" fill="#DEE8F7" stroke="#2957A4" stroke-width="3"/>
<path d="M410.494 413.639C410.494 412.62 411.261 411.764 412.273 411.652L421.779 410.594C422.964 410.462 424 411.39 424 412.582V439.363C424 440.467 423.105 441.363 422 441.363H412.494C411.39 441.363 410.494 440.467 410.494 439.363V413.639Z" fill="#DEE8F7" stroke="#2957A4" stroke-width="3"/>
<path d="M330.093 423.067C330.093 422.052 330.853 421.199 331.861 421.081L336.935 420.487C338.123 420.348 339.167 421.276 339.167 422.473V439.575C339.167 440.68 338.272 441.575 337.167 441.575H332.093C330.989 441.575 330.093 440.68 330.093 439.575V423.067Z" fill="#DEE8F7" stroke="#2957A4" stroke-width="3"/>
<path d="M313 425.895C313 424.898 313.735 424.053 314.723 423.915L318.32 423.412C319.523 423.243 320.597 424.178 320.597 425.392V439.972C320.597 441.087 319.684 441.987 318.569 441.972L314.972 441.921C313.878 441.906 313 441.015 313 439.922V425.895Z" fill="#DEE8F7" stroke="#2957A4" stroke-width="3"/>
<path d="M566.361 414.655C566.361 413.847 566.847 413.119 567.592 412.809L575.832 409.376C577.149 408.828 578.601 409.796 578.601 411.223V439.314C578.601 440.06 578.186 440.743 577.526 441.088L569.286 445.385C567.955 446.079 566.361 445.113 566.361 443.612V414.655Z" fill="#DEE8F7" stroke="#2957A4" stroke-width="3"/>
<rect x="511" y="419" width="31" height="41" rx="2" fill="#DEE8F7" stroke="#2957A4" stroke-width="3"/>
<path d="M710.818 460.075H61.5068" stroke="#2957A4" stroke-width="3" stroke-linecap="round"/>
<rect x="282" y="337" width="39" height="82.5503" rx="19.5" fill="#C3F2B5" stroke="#2957A4" stroke-width="3"/>
<path d="M301.5 391.483L301.5 460" stroke="#2957A4" stroke-width="3" stroke-linecap="round"/>
<path d="M301.5 405.517L313.37 380.339" stroke="#2957A4" stroke-width="3" stroke-linecap="round"/>
<path d="M307.011 392.309L295.565 374.56" stroke="#2957A4" stroke-width="3" stroke-linecap="round"/>
<path d="M299.804 379.513L303.62 368.782" stroke="#2957A4" stroke-width="3" stroke-linecap="round"/>
<path d="M301.924 402.628L289.63 389.832" stroke="#2957A4" stroke-width="3" stroke-linecap="round"/>
<ellipse cx="271.815" cy="403.195" rx="17.9674" ry="29.6376" fill="#C3F2B5" stroke="#2957A4" stroke-width="3"/>
<path d="M260.729 390.589C260.728 385.661 266.611 376.132 273.571 377.447" stroke="white" stroke-opacity="0.2" stroke-width="4" stroke-linecap="round"/>
<path d="M271.5 408.752L271.5 460" stroke="#2957A4" stroke-width="3" stroke-linecap="round"/>
<path d="M271.5 419.248L262.674 400.416" stroke="#2957A4" stroke-width="3" stroke-linecap="round"/>
<path d="M267.402 409.369L275.913 396.094" stroke="#2957A4" stroke-width="3" stroke-linecap="round"/>
<path d="M272.761 399.799L269.924 391.772" stroke="#2957A4" stroke-width="3" stroke-linecap="round"/>
<path d="M271.185 417.087L280.326 407.517" stroke="#2957A4" stroke-width="3" stroke-linecap="round"/>
<path d="M535.209 158.184C529.684 159.769 524.07 159.557 521 158.184V165.474C522.93 167.587 528.727 167.803 535.736 165.474C543.367 162.938 548.366 166.531 550.735 168.327V159.769C548.366 156.282 541.103 156.494 535.209 158.184Z" fill="#FF2B1E"/>
<path d="M534.157 165.238C528.631 166.459 524.07 166.297 521 165.239V171.034C522.93 172.662 528.727 173.317 535.736 171.523C543.367 169.569 548.366 172.337 550.735 173.721V167.127C548.366 164.441 540.05 163.936 534.157 165.238Z" fill="#0058EC"/>
<path d="M534.274 170.632C528.699 171.981 524.097 171.801 521 170.632V177.033C522.947 178.831 528.796 179.555 535.867 177.573C543.566 175.415 548.611 178.472 551 180V172.718C548.611 169.752 540.22 169.194 534.274 170.632Z" fill="#FF9E2D"/>
<path d="M535.276 158.27L535.624 159.729L535.276 158.27ZM536.375 177.096L535.976 175.65L536.375 177.096ZM521.721 177.597L521.013 178.92L521.721 177.597ZM521.011 170.57L522.013 169.454L521.011 170.57ZM520.995 164.038L519.985 165.146L520.995 164.038ZM520.995 164.038L522.006 162.929L520.995 164.038ZM551.525 158.59L550.569 159.747L551.525 158.59ZM520.999 170.559L519.991 171.67L520.999 170.559ZM523.457 159.97C526.768 160.655 531.062 160.816 535.624 159.729L534.929 156.811C530.834 157.786 526.987 157.636 524.065 157.032L523.457 159.97ZM522.495 164.038V160.597H519.495V164.038H522.495ZM522.006 162.929L522.006 162.929L519.985 165.146L519.985 165.146L522.006 162.929ZM522.495 170.552V164.038H519.495V170.552H522.495ZM522.013 169.454C522.01 169.452 522.008 169.45 522.006 169.448L519.991 171.67C519.997 171.676 520.003 171.681 520.009 171.687L522.013 169.454ZM519.495 170.587V176.212H522.495V170.587H519.495ZM521.013 178.92C522.614 179.776 524.946 180.1 527.563 180.032C530.231 179.961 533.387 179.477 536.774 178.542L535.976 175.65C532.781 176.532 529.868 176.97 527.484 177.033C525.048 177.097 523.343 176.764 522.428 176.275L521.013 178.92ZM536.774 178.542C543.724 176.625 548.338 179.548 550.874 181.161L552.484 178.63C549.826 176.939 544.238 173.371 535.976 175.65L536.774 178.542ZM553.529 179.702V173.577H550.529V179.702H553.529ZM553.529 173.577V172.702H550.529V173.577H553.529ZM550.529 166.509V172.702H553.529V166.509H550.529ZM550.529 166.162V166.509H553.529V166.162H550.529ZM550.529 159.808V166.162H553.529V159.808H550.529ZM535.624 159.729C538.445 159.058 541.661 158.553 544.494 158.504C545.91 158.479 547.189 158.57 548.255 158.792C549.336 159.016 550.094 159.354 550.569 159.747L552.481 157.434C551.488 156.613 550.204 156.133 548.866 155.854C547.514 155.573 545.998 155.477 544.442 155.504C541.33 155.558 537.89 156.106 534.929 156.811L535.624 159.729ZM519.495 176.212C519.495 177.121 519.869 178.308 521.013 178.92L522.428 176.275C522.456 176.289 522.48 176.309 522.497 176.327C522.514 176.345 522.519 176.357 522.518 176.355C522.517 176.353 522.511 176.339 522.505 176.313C522.5 176.286 522.495 176.252 522.495 176.212H519.495ZM521.525 169.175C520.539 168.809 519.495 169.541 519.495 170.587H522.495C522.495 171.625 521.461 172.35 520.483 171.988L521.525 169.175ZM520.009 171.687C518.806 170.607 519.95 168.591 521.525 169.175L520.483 171.988C522.072 172.576 523.226 170.542 522.013 169.454L520.009 171.687ZM521.519 162.632C520.49 162.248 519.495 163.045 519.495 164.038H522.495C522.495 165.03 521.501 165.827 520.471 165.443L521.519 162.632ZM519.985 165.146C518.765 164.035 519.973 162.056 521.519 162.632L520.471 165.443C522.017 166.02 523.225 164.041 522.006 162.929L519.985 165.146ZM519.495 164.038C519.495 164.46 519.673 164.862 519.985 165.146L522.006 162.929C522.318 163.213 522.495 163.616 522.495 164.038H519.495ZM553.529 159.808C553.529 159.064 553.291 158.104 552.481 157.434L550.569 159.747C550.548 159.729 550.533 159.711 550.523 159.697C550.513 159.683 550.511 159.676 550.512 159.68C550.514 159.684 550.518 159.696 550.522 159.72C550.526 159.743 550.529 159.772 550.529 159.808H553.529ZM519.495 170.552C519.495 170.977 519.675 171.383 519.991 171.67L522.006 169.448C522.318 169.731 522.495 170.132 522.495 170.552H519.495ZM550.874 181.161C552.028 181.895 553.529 181.062 553.529 179.702H550.529C550.529 178.703 551.634 178.089 552.484 178.63L550.874 181.161ZM524.065 157.032C521.916 156.587 519.495 158.108 519.495 160.597H522.495C522.495 160.434 522.571 160.265 522.758 160.126C522.954 159.982 523.214 159.919 523.457 159.97L524.065 157.032Z" fill="#2957A4"/>
</svg>
