<svg width="922" height="580" viewBox="0 0 922 580" fill="none" xmlns="http://www.w3.org/2000/svg">
<rect width="922" height="580" fill="white"/>
<g opacity="0.11">
<path d="M494.044 474.67C407.788 459.301 368.254 492.047 362.264 521.097V523.498H365.858L416.174 513.492L444.926 510.29L483.861 512.059L515.009 517.094L564.127 525.899C576.706 515.227 580.3 490.039 494.044 474.67Z" fill="#53C931"/>
<path d="M494.044 474.979C407.788 459.611 368.254 492.356 362.264 521.406V523.807H365.858L370.001 516.253C375.173 506.822 382.188 498.527 390.63 491.861C399.491 484.864 410.155 480.523 421.383 479.343L450.695 476.262C458.795 475.41 466.971 475.615 475.018 476.871L502.43 481.15L532.979 489.555L548.085 494.524C561.254 498.855 568.431 513.03 564.127 526.209C576.706 515.536 580.3 490.348 494.044 474.979Z" fill="#FDFFFC" fill-opacity="0.54"/>
<path d="M494.044 474.979C407.788 459.611 368.254 492.356 362.264 521.406V523.807H365.858L416.174 513.802L444.926 510.6L483.861 512.368L515.009 517.404L564.127 526.209C576.706 515.536 580.3 490.348 494.044 474.979Z" stroke="#2957A4" stroke-width="4"/>
<path d="M515.608 505.945C518.404 503.543 525.911 500.181 533.578 505.945" stroke="#2957A4" stroke-width="3" stroke-linecap="round"/>
</g>
<g opacity="0.11">
<path d="M361.066 520.813C268.82 489.039 207.322 530.422 183.762 559.998H200.534L227.489 564.795L259.835 570.19H287.389L331.116 564.795L367.655 556.401L361.066 520.813Z" fill="#53C931"/>
<path d="M191.582 551.036C216.797 524.587 265.42 494.919 343.788 517.401L351.411 517.981C351.857 518.015 352.298 518.089 352.731 518.2L361.006 520.338C362.445 520.709 362.176 522.829 360.689 522.829C360.542 522.829 360.392 522.801 360.253 522.751C354.625 520.713 349.137 518.936 343.788 517.401L314.756 515.19C302.955 514.291 291.086 514.995 279.474 517.281L277.672 517.636C266.222 519.89 255.087 523.522 244.51 528.453L224.126 537.955C219.202 540.25 214.608 543.196 210.468 546.712L198.002 557.298C197.308 557.887 196.46 558.265 195.558 558.388C191.293 558.971 188.611 554.152 191.582 551.036Z" fill="#FDFFFC" fill-opacity="0.54"/>
<path d="M200.972 557.537L200.754 557.498H200.534H189.115C214.152 529.005 272.211 491.34 363.448 523.803L365.049 554.435L330.682 562.329L287.235 567.69H260.042L227.913 562.331L200.972 557.537Z" stroke="#2957A4" stroke-width="5"/>
<path d="M313.145 523.811C315.009 522.001 320.014 519.468 325.125 523.811" stroke="#2957A4" stroke-width="2" stroke-linecap="round"/>
</g>
<g opacity="0.11">
<path d="M672.973 512.811C621.567 497.555 589.173 502.357 572.513 507.624C577.305 520.214 571.826 523.163 571.826 524.798C571.826 526.105 566.273 529.883 563.497 531.608C579.164 532.789 614.308 535.259 629.539 535.695C648.579 536.24 666.428 534.605 684.278 532.698C698.557 531.173 715.613 531.336 722.356 531.608C727.314 531.699 724.379 528.067 672.973 512.811Z" fill="#53C931"/>
<path d="M626.564 507.907C604.669 504.202 584.988 506.534 573.089 509.259L569.519 507.624L579.561 506C634.299 495.975 695.979 517.987 719.976 530.246C673.568 514.99 653.933 512.538 626.564 507.907Z" fill="#FDFFFC" fill-opacity="0.54"/>
<path d="M672.973 512.811C621.567 497.555 591.569 503.556 574.909 508.823C576.706 518.415 573.112 522.012 571.826 524.798C571.278 525.985 566.273 529.883 563.497 531.608C579.164 532.789 614.308 535.259 629.539 535.695C648.579 536.24 666.428 534.605 684.278 532.698C698.557 531.173 715.613 531.336 722.356 531.608C727.314 531.699 724.379 528.067 672.973 512.811Z" stroke="#2957A4" stroke-width="4"/>
<path d="M618.958 522.018C620.254 521.195 623.734 520.044 627.288 522.018" stroke="#2957A4" stroke-width="2" stroke-linecap="round"/>
</g>
<g opacity="0.41">
<path d="M589.047 532.13L591.781 377.29C591.8 376.199 592.69 375.325 593.78 375.325H596.867C597.956 375.325 598.844 376.196 598.867 377.284L602.056 532.125C602.079 533.245 601.177 534.166 600.056 534.166H591.047C589.928 534.166 589.027 533.249 589.047 532.13Z" fill="#ADC4EB" stroke="#2957A4" stroke-width="3.5"/>
<path d="M585.521 532.602V455.436C585.521 454.332 586.417 453.436 587.521 453.436H603.152C604.256 453.436 605.152 454.332 605.152 455.436V532.602C605.152 533.707 604.256 534.602 603.152 534.602H587.521C586.417 534.602 585.521 533.707 585.521 532.602Z" fill="#ADC4EB" stroke="#2957A4" stroke-width="3.5"/>
<path d="M583.933 450.97L585.59 444.061C585.806 443.161 586.61 442.527 587.535 442.527H602.82C603.69 442.527 604.46 443.089 604.725 443.918L606.935 450.827C607.348 452.118 606.385 453.436 605.03 453.436H585.877C584.584 453.436 583.631 452.227 583.933 450.97Z" fill="#B22A2D"/>
<path d="M602.457 471.844C593.356 481.368 588.258 507.041 586.83 518.893V455.873C586.83 454.768 587.726 453.873 588.83 453.873H602.506C603.689 453.873 604.613 454.894 604.496 456.072L603.044 470.596C602.997 471.069 602.784 471.501 602.457 471.844Z" fill="#DEE8F7"/>
<path d="M603.923 456.401C594.134 460.702 585.521 465.745 585.521 485.292V455.873C585.521 454.768 586.417 453.873 587.521 453.873H603.398C604.126 453.873 604.716 454.463 604.716 455.19C604.716 455.715 604.403 456.189 603.923 456.401Z" fill="white"/>
<path d="M591.628 520.419V534.49C591.628 534.552 591.678 534.602 591.74 534.602H598.932C598.994 534.602 599.044 534.552 599.044 534.49V520.419C599.044 518.371 597.384 516.711 595.336 516.711C593.288 516.711 591.628 518.371 591.628 520.419Z" fill="#ADC4EB" stroke="#2957A4" stroke-width="3.5" stroke-linecap="round"/>
<path d="M593.539 447.499L585.651 452.482C585.566 452.536 585.472 452.576 585.374 452.601C584.664 452.778 584.028 452.121 584.229 451.417L586.029 445.116C586.251 444.341 586.915 443.774 587.716 443.679L604.372 441.695C604.598 441.668 604.828 441.695 605.042 441.773C606.392 442.264 606.291 444.206 604.897 444.554L594.122 447.249C593.916 447.301 593.719 447.385 593.539 447.499Z" fill="white" fill-opacity="0.96"/>
<path d="M587.558 446.279L585.334 450.617C585.247 450.788 585.091 450.913 584.905 450.961C584.403 451.092 583.949 450.631 584.086 450.131L585.552 444.791C585.767 444.01 586.431 443.436 587.235 443.336L600.569 441.684C600.729 441.665 600.891 441.684 601.041 441.741C602.004 442.105 601.841 443.513 600.821 443.649L589.075 445.209C588.424 445.295 587.857 445.695 587.558 446.279Z" fill="white"/>
<path d="M589.884 453.873V463.473" stroke="#2957A4" stroke-width="3.5" stroke-linecap="round"/>
<path d="M594.683 453.873V470.891" stroke="#2957A4" stroke-width="3.5" stroke-linecap="round"/>
<path d="M583.933 450.97L585.59 444.061C585.806 443.161 586.61 442.527 587.535 442.527H602.82C603.69 442.527 604.46 443.089 604.725 443.918L606.935 450.827C607.348 452.118 606.385 453.436 605.03 453.436H585.877C584.584 453.436 583.631 452.227 583.933 450.97Z" stroke="#2957A4" stroke-width="3.5"/>
<path d="M591.628 406.744L599.48 402.817" stroke="#2957A4" stroke-width="3.5" stroke-linecap="round"/>
<path d="M585.521 532.602V455.436C585.521 454.332 586.417 453.436 587.521 453.436H603.152C604.256 453.436 605.152 454.332 605.152 455.436V532.602C605.152 533.707 604.256 534.602 603.152 534.602H587.521C586.417 534.602 585.521 533.707 585.521 532.602Z" stroke="#2957A4" stroke-width="3.5"/>
<path d="M532.301 384.489L575.488 365.725L571.562 363.543L532.301 384.489Z" fill="white"/>
<path d="M598.173 297.651L606.448 346.472L609.923 343.626L598.173 297.651Z" fill="white"/>
</g>
<g opacity="0.41" filter="url(#filter0_d_900_4781)">
<path d="M285.394 532.175L288.128 377.335C288.147 376.244 289.037 375.37 290.128 375.37H293.214C294.303 375.37 295.191 376.24 295.214 377.329L298.403 532.169C298.426 533.289 297.524 534.21 296.404 534.21H287.394C286.276 534.21 285.375 533.293 285.394 532.175Z" fill="#ADC4EB" stroke="#2957A4" stroke-width="3.5"/>
<path d="M281.869 532.841V455.675C281.869 454.571 282.764 453.675 283.869 453.675H299.499C300.604 453.675 301.499 454.571 301.499 455.675V532.841C301.499 533.945 300.604 534.841 299.499 534.841H283.869C282.764 534.841 281.869 533.945 281.869 532.841Z" fill="#ADC4EB" stroke="#2957A4" stroke-width="3.5"/>
<path d="M280.28 451.209L281.937 444.299C282.153 443.4 282.957 442.766 283.882 442.766H299.167C300.037 442.766 300.807 443.328 301.072 444.156L303.282 451.066C303.695 452.356 302.732 453.675 301.377 453.675H282.225C280.931 453.675 279.978 452.466 280.28 451.209Z" fill="#B22A2D"/>
<path d="M298.804 472.083C289.704 481.607 284.605 507.28 283.177 519.131V456.112C283.177 455.007 284.073 454.112 285.177 454.112H298.853C300.036 454.112 300.961 455.133 300.843 456.311L299.391 470.835C299.344 471.307 299.132 471.74 298.804 472.083Z" fill="#DEE8F7"/>
<path d="M300.27 456.639C290.481 460.94 281.869 465.983 281.869 485.531V456.112C281.869 455.007 282.764 454.112 283.869 454.112H299.745C300.473 454.112 301.063 454.701 301.063 455.429C301.063 455.954 300.751 456.428 300.27 456.639Z" fill="white"/>
<path d="M287.975 520.658V534.729C287.975 534.791 288.026 534.841 288.087 534.841H295.28C295.341 534.841 295.391 534.791 295.391 534.729V520.658C295.391 518.61 293.731 516.95 291.683 516.95C289.636 516.95 287.975 518.61 287.975 520.658Z" fill="#ADC4EB" stroke="#2957A4" stroke-width="3.5" stroke-linecap="round"/>
<path d="M289.886 447.737L281.998 452.721C281.913 452.775 281.819 452.815 281.721 452.839C281.011 453.017 280.375 452.36 280.576 451.656L282.376 445.354C282.598 444.579 283.262 444.013 284.063 443.918L300.719 441.934C300.945 441.907 301.175 441.934 301.389 442.012C302.739 442.503 302.638 444.445 301.245 444.793L290.469 447.488C290.263 447.54 290.066 447.624 289.886 447.737Z" fill="white" fill-opacity="0.96"/>
<path d="M283.905 446.518L281.682 450.855C281.594 451.026 281.438 451.152 281.252 451.2C280.75 451.33 280.296 450.87 280.433 450.37L281.899 445.03C282.114 444.249 282.778 443.674 283.582 443.575L296.916 441.923C297.076 441.903 297.238 441.923 297.388 441.98C298.351 442.344 298.188 443.752 297.168 443.887L285.422 445.448C284.771 445.534 284.204 445.934 283.905 446.518Z" fill="white"/>
<path d="M286.232 454.112V463.712" stroke="#2957A4" stroke-width="3.5" stroke-linecap="round"/>
<path d="M291.031 454.112V471.13" stroke="#2957A4" stroke-width="3.5" stroke-linecap="round"/>
<path d="M280.28 451.209L281.937 444.299C282.153 443.4 282.957 442.766 283.882 442.766H299.167C300.037 442.766 300.807 443.328 301.072 444.156L303.282 451.066C303.695 452.356 302.732 453.675 301.377 453.675H282.225C280.931 453.675 279.978 452.466 280.28 451.209Z" stroke="#2957A4" stroke-width="3.5"/>
<path d="M287.975 406.983L295.828 403.056" stroke="#2957A4" stroke-width="3.5" stroke-linecap="round"/>
<path d="M281.869 532.841V455.675C281.869 454.571 282.764 453.675 283.869 453.675H299.499C300.604 453.675 301.499 454.571 301.499 455.675V532.841C301.499 533.945 300.604 534.841 299.499 534.841H283.869C282.764 534.841 281.869 533.945 281.869 532.841Z" stroke="#2957A4" stroke-width="3.5"/>
</g>
<path d="M226.367 530.896C194.991 523.084 169.716 531.71 161 537V575.369H760V537C731.476 516.858 668.486 537 628.672 537C588.857 537 553.202 522.962 493.184 508.313C433.165 493.665 401.075 515.638 354.13 526.014C307.185 536.39 265.587 540.662 226.367 530.896Z" fill="white"/>
<path d="M161 537C169.716 531.71 194.991 523.084 226.367 530.896C265.587 540.662 307.185 536.39 354.13 526.014C401.075 515.638 433.165 493.665 493.184 508.313C553.202 522.962 588.857 537 628.672 537C668.486 537 731.476 516.858 760 537" stroke="#2957A4" stroke-width="5" stroke-linecap="round"/>
<path d="M434.18 501.392L437.96 287.168C437.98 286.078 438.869 285.204 439.96 285.204H445.663C446.751 285.204 447.64 286.074 447.662 287.163L452.072 501.386C452.095 502.506 451.193 503.427 450.073 503.427H436.18C435.062 503.427 434.16 502.51 434.18 501.392Z" fill="#ADC4EB" stroke="#2957A4" stroke-width="3.5"/>
<path d="M429.352 502.027V394.517C429.352 393.412 430.247 392.517 431.352 392.517H454.307C455.411 392.517 456.307 393.412 456.307 394.517V502.027C456.307 503.131 455.411 504.027 454.307 504.027H431.352C430.247 504.027 429.352 503.131 429.352 502.027Z" fill="#ADC4EB" stroke="#2957A4" stroke-width="3.5"/>
<path d="M426.948 390.051L429.583 379.063C429.799 378.163 430.603 377.529 431.528 377.529H453.649C454.519 377.529 455.289 378.091 455.554 378.92L459.067 389.908C459.479 391.198 458.517 392.517 457.162 392.517H428.893C427.6 392.517 426.647 391.308 426.948 390.051Z" fill="#B22A2D" fill-opacity="0.6"/>
<path d="M452.797 417.609C440.182 430.532 433.119 466.079 431.149 482.444V395.116C431.149 394.012 432.045 393.116 433.149 393.116H453.499C454.682 393.116 455.606 394.138 455.489 395.315L453.385 416.366C453.338 416.838 453.129 417.269 452.797 417.609Z" fill="#DEE8F7"/>
<path d="M454.619 396.589C441.178 402.498 429.352 409.427 429.352 436.282V395.116C429.352 394.012 430.247 393.116 431.352 393.116H453.898C454.898 393.116 455.708 393.927 455.708 394.926C455.708 395.647 455.279 396.299 454.619 396.589Z" fill="white"/>
<path d="M437.738 484.538V503.873C437.738 503.958 437.807 504.027 437.892 504.027H447.768C447.853 504.027 447.921 503.958 447.921 503.873V484.538C447.921 481.726 445.642 479.447 442.83 479.447C440.018 479.447 437.738 481.726 437.738 484.538Z" fill="#ADC4EB" stroke="#2957A4" stroke-width="3.5" stroke-linecap="round"/>
<path d="M440.462 384.295L429.53 391.206C429.412 391.28 429.284 391.335 429.149 391.369C428.175 391.613 427.301 390.71 427.577 389.744L430.185 380.607C430.407 379.832 431.072 379.265 431.872 379.17L455.236 376.386C455.547 376.349 455.862 376.386 456.157 376.493C458.01 377.167 457.874 379.835 455.961 380.314L441.045 384.046C440.839 384.097 440.642 384.182 440.462 384.295Z" fill="white" fill-opacity="0.96"/>
<path d="M432.327 382.335L429.095 388.643C428.975 388.878 428.76 389.05 428.505 389.116C427.816 389.296 427.192 388.663 427.38 387.977L429.526 380.157C429.741 379.376 430.405 378.801 431.209 378.702L450.014 376.371C450.233 376.344 450.456 376.371 450.663 376.449C451.985 376.949 451.761 378.884 450.361 379.07L433.843 381.265C433.193 381.351 432.626 381.751 432.327 382.335Z" fill="white"/>
<path d="M435.342 393.116V406.306" stroke="#2957A4" stroke-width="3.5" stroke-linecap="round"/>
<path d="M441.931 393.116V416.498" stroke="#2957A4" stroke-width="3.5" stroke-linecap="round"/>
<path d="M426.948 390.051L429.583 379.063C429.799 378.163 430.603 377.529 431.528 377.529H453.649C454.519 377.529 455.289 378.091 455.554 378.92L459.067 389.908C459.479 391.198 458.517 392.517 457.162 392.517H428.893C427.6 392.517 426.647 391.308 426.948 390.051Z" stroke="#2957A4" stroke-width="3.5"/>
<path d="M437.738 328.369L448.52 322.973" stroke="#2957A4" stroke-width="3.5" stroke-linecap="round"/>
<path d="M429.352 502.027V394.517C429.352 393.412 430.247 392.517 431.352 392.517H454.307C455.411 392.517 456.307 393.412 456.307 394.517V502.027C456.307 503.131 455.411 504.027 454.307 504.027H431.352C430.247 504.027 429.352 503.131 429.352 502.027Z" stroke="#2957A4" stroke-width="3.5"/>
<path d="M356.274 297.794L415.575 272.014L410.184 269.017L356.274 297.794Z" fill="white"/>
<path d="M446.723 178.49L458.086 245.564L462.858 241.654L446.723 178.49Z" fill="white"/>
<defs>
<filter id="filter0_d_900_4781" x="201.965" y="273.453" width="168.532" height="271.138" filterUnits="userSpaceOnUse" color-interpolation-filters="sRGB">
<feFlood flood-opacity="0" result="BackgroundImageFix"/>
<feColorMatrix in="SourceAlpha" type="matrix" values="0 0 0 0 0 0 0 0 0 0 0 0 0 0 0 0 0 0 127 0" result="hardAlpha"/>
<feOffset dy="4"/>
<feGaussianBlur stdDeviation="2"/>
<feComposite in2="hardAlpha" operator="out"/>
<feColorMatrix type="matrix" values="0 0 0 0 0 0 0 0 0 0 0 0 0 0 0 0 0 0 0.25 0"/>
<feBlend mode="normal" in2="BackgroundImageFix" result="effect1_dropShadow_900_4781"/>
<feBlend mode="normal" in="SourceGraphic" in2="effect1_dropShadow_900_4781" result="shape"/>
</filter>
</defs>
</svg>
