<svg width="199" height="306" viewBox="0 0 199 306" fill="none" xmlns="http://www.w3.org/2000/svg">
<g opacity="0.08">
<path d="M116.939 168.231V168.231C116.939 161.137 111.48 155.325 104.681 153.298C101.627 152.388 98.5278 151.215 95.6247 149.741C81.7917 142.716 64.0792 128.449 53.6351 116.977C50.5554 113.594 49.0925 109.027 50.595 102.933C51.043 99.3832 54.914 91.6759 66.6422 87.4715C68.2206 86.9057 69.3445 85.4504 69.3445 83.7736V83.7736C69.3445 81.9519 68.0317 80.4087 66.2746 79.9281C59.7194 78.1351 50.595 73.7406 50.595 65.9299C50.595 54.5026 57.8064 50.6935 63.5755 50.1494" stroke="#2957A4" stroke-width="3" stroke-linecap="round"/>
<path d="M158.221 147.319C155.096 146.513 153.062 142.691 169.925 133.857C172.18 131.997 175.665 126.814 171.57 120.962C166.451 113.646 162.991 105.076 177.496 97.6258" stroke="#2957A4" stroke-width="3" stroke-linecap="round"/>
</g>
</svg>
