<svg width="234" height="295" viewBox="0 0 234 295" fill="none" xmlns="http://www.w3.org/2000/svg">
<g opacity="0.08">
<path d="M114.18 133.353V133.353C114.18 127.213 118.904 122.184 124.786 120.426C127.422 119.638 130.098 118.622 132.604 117.347C144.556 111.262 159.86 98.9269 168.872 88.9941C171.527 86.0677 172.787 82.1179 171.491 76.8498C171.104 73.7789 167.76 67.1109 157.632 63.4726C156.266 62.9821 155.294 61.7227 155.294 60.2718V60.2718C155.294 58.6953 156.43 57.3597 157.951 56.9429C163.613 55.3906 171.491 51.5883 171.491 44.8315C171.491 34.9436 165.261 31.6476 160.278 31.1767" stroke="#2957A4" stroke-width="3" stroke-linecap="round"/>
<path d="M36.8941 131.422C34.3997 132.669 30.9075 131.328 36.8941 115.986C37.3098 113.492 36.6446 108.128 30.658 106.631C23.1748 104.76 16.062 101.128 21.295 88.0284" stroke="#2957A4" stroke-width="3" stroke-linecap="round"/>
<path d="M33.0691 83.0506C22.6031 89.3504 16.8469 90.1379 5.85763 83.0506" stroke="#2957A4" stroke-width="3" stroke-linecap="round"/>
<path d="M150.734 154.078V154.078C150.734 153.104 151.474 152.295 152.436 152.141C154.886 151.747 157.833 150.95 160.43 149.618C166.714 146.395 174.758 139.897 179.477 134.643C180.864 133.1 181.52 131.018 180.841 128.244C180.637 126.623 178.882 123.105 173.566 121.183C172.845 120.923 172.332 120.258 172.332 119.491V119.491C172.332 118.659 172.932 117.953 173.735 117.731C176.709 116.911 180.841 114.903 180.841 111.339C180.841 106.118 177.568 104.377 174.95 104.129" stroke="#2957A4" stroke-width="3" stroke-linecap="round"/>
</g>
</svg>
